<?xml version="1.0" standalone="no"?>
<!DOCTYPE svg PUBLIC "-//W3C//DTD SVG 1.1//EN" "http://www.w3.org/Graphics/SVG/1.1/DTD/svg11.dtd" >
<svg xmlns="http://www.w3.org/2000/svg">
<metadata>Generated by IcoMoon</metadata>
<defs>
<font id="pp-icon" horiz-adv-x="512">
<font-face units-per-em="512" ascent="480" descent="-32" />
<missing-glyph horiz-adv-x="512" />
<glyph unicode="&#x20;" d="" horiz-adv-x="256" />
<glyph unicode="&#x21;" d="M255.043 427.717c-112.21 0-203.228-90.968-203.228-203.204 0-112.248 90.966-203.228 203.228-203.252 112.237 0 203.253 90.993 203.253 203.252 0.001 112.236-91.016 203.204-203.253 203.204zM255.043 100.202c-19.147 0-34.689 15.532-34.689 34.69 0 19.171 15.543 34.727 34.689 34.727 19.197 0 34.69-15.555 34.69-34.727 0.001-19.157-15.492-34.69-34.69-34.69zM289.733 228.24h-0.050c-0.566-18.678-15.839-33.655-34.642-33.655-18.8 0-34.096 14.976-34.641 33.655h-0.049v87.29h0.075c0.763 18.505 15.963 33.283 34.615 33.283 18.702 0 33.875-14.779 34.642-33.283h0.050v-87.29z" />
<glyph unicode="&#x22;" d="M96.644 447.982h319.274v-447.482h-319.274v447.482z" />
<glyph unicode="&#x23;" d="M399.227 275.604v90.666c0 45.553-36.896 82.444-82.442 82.444h-115.408c-45.516 0-82.444-36.891-82.444-82.444v-90.666h-49.444v-276.146h372.995v276.146h-43.257zM269.886 130.51v-39.729c0-7.64-6.226-13.899-13.901-13.899-7.64 0-13.897 6.26-13.897 13.899v39.729c-11.169 5.239-18.916 16.591-18.916 29.726 0 18.118 14.698 32.816 32.813 32.816 18.157 0 32.855-14.698 32.855-32.816 0-13.135-7.785-24.487-18.954-29.726zM358.803 275.604h-199.45v90.666c0 23.212 18.846 42.059 42.024 42.059h115.407c23.171 0 42.019-18.846 42.019-42.059v-90.666z" />
<glyph unicode="&#x24;" d="M247.562 9.33c0-18.951-15.362-34.313-34.313-34.313s-34.313 15.362-34.313 34.313c0 18.951 15.362 34.313 34.313 34.313s34.313-15.362 34.313-34.313zM214.006 395.040c20.791-7.577 43.778 3.149 51.347 23.944 7.57 20.806-3.14 43.782-23.945 51.352-20.762 7.546-43.782-3.158-51.352-23.95-7.571-20.796 3.192-43.8 23.95-51.346zM432.385 7.423c-0.915 6.671-24.166 35.267-33.83 43.127-6.869 5.586-25.545 22.875-40.736 35.987-14.713 12.699-33.145 29.544-34.979 42.888-1.847 13.343-2.767 81.010-2.767 81.010s-2.761 55.291-5.522 67.675c-2.761 12.385-11.969 62.908-11.969 62.908s9.741-27.482 18.771-49.428c0.63-3.792 27.914-51.283 31.624-56.629 5.345-7.811 11.599-11.997 16.257-8.75 4.651 3.282 3.434 10.286-4.541 29.648-7.977 19.357-13.411 29.879-13.411 29.879s-28.416 73.406-33.7 83.633c-10.361 20.014-21.635 17.471-30.846 20.329-4.122 1.282-10.606 1.794-16.512 1.971-10.94-11.312-26.185-18.147-42.514-18.147-6.897 0-13.707 1.21-20.234 3.587-4.393 1.595-8.48 3.722-12.291 6.222-8.19-2.833-23.951-9.66-31.377-22.226-8.681-14.683-29.285-78.481-30.252-83.901-1.111-6.269 3.709-12.768 10.803-18.959 7.114-6.224 33.607-27.515 41.577-33.101 7.925-5.625 15.471-7.361 18.883-2.461 3.39 4.923-0.236 11.293-14.744 27.186-14.496 15.883-20.883 22.32-22.347 23.994-1.475 1.675-4.176 3.679-0.134 10.893 2.91 5.106 10.685 18.746 16.659 29.825 0.977-5.895 3.517-21.11 6.367-36.894 3.547-3.91 9.173-10.157 17.534-19.741 18.025-20.688 18.178-37.373 12.313-46.089-1.645-2.426-3.847-4.273-6.347-5.57 17.338-31.272 44.946-76.993 55.97-90.621l-7.216 81.246c-0.493 5.531 3.594 10.419 9.133 10.912 5.565 0.486 10.42-3.601 10.911-9.133l10.661-119.997c3.408-18.875 6.070-38.321 4.406-46.495-3.686-18.111-15.652-29.551-15.652-40.986 0-11.438 8.293-14.291 21.173-13.344 12.891 0.947 17.786 16.202 19.622 27.641 1.827 11.435 2.13 31.461 2.13 40.985v16.87c24.596-10.302 50.514-31.349 54.71-35.696 6.447-6.674 31.861-29.786 39.219-29.786 7.36 0.002 14.12 2.857 13.199 9.534z" />
<glyph unicode="&#x25;" d="M262.432 379.55c-5.664 5.622-13.057 8.503-20.47 8.503-7.392 0-14.806-2.852-20.438-8.483l-80.267-80.277c-0.942 0.144-1.879 0.292-2.857 0.292h-86.42c-10.603 0-19.28-8.678-19.28-19.287v-113.257c0-10.604 8.678-19.281 19.28-19.281h86.42c0.983 0 1.925 0.148 2.868 0.292l80.256-80.252c11.304-11.335 29.622-11.335 40.908 0 5.549 5.54 8.354 12.8 8.44 20.074h0.017v271.043h-0.011c0.052 7.465-2.771 14.93-8.446 20.633z" />
<glyph unicode="&#x26;" d="M262.431 379.55c-5.663 5.622-13.056 8.503-20.469 8.503-7.392 0-14.806-2.852-20.438-8.483l-80.267-80.277c-0.942 0.144-1.879 0.292-2.857 0.292h-86.42c-10.603 0-19.28-8.678-19.28-19.287v-113.257c0-10.604 8.678-19.281 19.28-19.281h86.42c0.983 0 1.925 0.148 2.868 0.292l80.256-80.252c11.304-11.335 29.622-11.335 40.907 0 5.55 5.54 8.354 12.8 8.441 20.074h0.016v271.043h-0.010c0.051 7.465-2.771 14.93-8.447 20.633zM306.992 397.090c-5.79 0-10.484-4.694-10.484-10.484s4.694-10.485 10.484-10.485c83.942 0 152.239-68.297 152.239-152.239 0-83.953-68.297-152.251-152.239-152.251-5.79 0-10.484-4.694-10.484-10.484 0-5.791 4.694-10.485 10.484-10.485 95.508 0 173.21 77.707 173.21 173.221 0 95.505-77.702 173.207-173.21 173.207zM306.992 107.699c64.058 0 116.177 52.119 116.177 116.182 0 64.057-52.119 116.17-116.177 116.17-5.79 0-10.484-4.694-10.484-10.485 0-5.79 4.694-10.484 10.484-10.484 52.498 0 95.206-42.709 95.206-95.201 0-52.497-42.708-95.212-95.206-95.212-5.79 0-10.484-4.694-10.484-10.484 0-5.791 4.694-10.486 10.484-10.486zM306.992 190.745c-5.79 0-10.484-4.694-10.484-10.484 0-5.791 4.694-10.485 10.484-10.485 32.607 0 59.133 26.525 59.133 59.132s-26.525 59.133-59.133 59.133c-5.79 0-10.484-4.694-10.484-10.485 0-5.79 4.694-10.485 10.484-10.485 21.042 0 38.162-17.12 38.162-38.162s-17.12-38.164-38.162-38.164z" />
<glyph unicode="&#x28;" d="M174.8 188.285c4.368-2.338 8.65-4.835 13.109-6.997 24.402-11.825 48.97-23.307 73.136-35.592 3.712-1.882 5.608-7.327 8.353-11.125-4.168-2.156-8.297-6.080-12.518-6.164-26.677-0.57-53.379-0.263-80.077-0.32-4.358-0.011-10.704-0.375-16.227-0.63 39.511-58.291 261.789-123.231 343.325-101.62v260.336c-116.481-1.542-232.172-21.050-331.235-92.541 0.054-1.785 2.097-3.572 2.131-5.346zM305.027 212.349c10.63 0.426 20.833-9.238 21.163-20.042 0.318-10.757-9.252-20.989-19.923-21.324-10.38-0.307-20.97 9.646-21.3 20.060-0.353 10.606 9.317 20.873 20.060 21.305zM405.725 424.847c-63.848-13.392-116.617-46.58-167.403-85.767-5.014-3.857-11.645-6.689-17.891-6.899-15.368-0.502-23.97-8.037-25.81-23.273-0.589-4.881-2.736-10.635-6.193-13.935-36.922-35.197-74.159-69.995-111.433-104.81-3.389-3.156-7.025-6.296-11.111-8.349-13.499-6.803-30.121-0.198-36.224 13.925-6.007 13.95-0.456 26.817 14.056 32.255 1.084-4.664 2.157-9.3 3.712-16.010 14.933 18.972 28.416 36.098 41.889 53.229-0.478 0.818-0.95 1.639-1.423 2.457-18.679-6.939-38.312-12.041-55.811-21.221-30.081-15.776-32.317-57.011-5.637-77.698 17.839-13.832 42.877-12.296 61.391 4.978 37.623 35.126 74.635 70.901 112.341 105.942 4.112 3.823 11.031 6.159 16.756 6.41 12.637 0.53 22.218 6.416 23.231 18.017 1.038 11.767 5.75 17.029 13.465 22.904 74.267 56.681 151.265 100.289 250.274 80.747v17.221c-34.942 7.432-64.911 6.853-98.177-0.121z" />
<glyph unicode="&#x29;" d="M67.106 192.473c13.151 5.191 27.435 8.128 42.431 8.139-0.168 3.37-0.328 6.743-0.328 10.163 0 44.486 13.814 85.701 37.412 119.663 5 7.566-2.259 8.5-6.285 7.566-30.192-6.323-59.501 5.493-69.51 29.933-11.553 28.291 7.261 62.777 42.014 77.032 34.797 14.208 72.39 2.833 83.942-25.489 3.495-8.507 4.203-17.543 2.611-26.445-0.089-0.308-0.133-0.616-0.179-0.928-0.571-4.822 1.551-7.48 6.552-4.56 0.089 0.048 0.18 0.089 0.226 0.139 18.994 12.173 40.066 21.334 62.549 26.909 0.051 0 0.091 0.046 0.138 0.046 1.080 0.266 2.154 0.5 3.229 0.743 0.091 0.035 0.127 0.058 0.24 0.082 5.217 1.278 6.149 4.735 2.791 8.35-28.325 29.003-67.855 47.051-111.626 47.051-86.064 0-155.839-69.768-155.839-155.879 0.001-49.731 23.331-94 59.632-122.517zM109.582 175.344c-50.904 0-92.162-41.264-92.162-92.163 0-50.902 41.258-92.163 92.162-92.163 50.905 0 92.163 41.261 92.163 92.163 0 50.901-41.258 92.163-92.163 92.163zM319.199 394.938c-7.224 0-14.31-0.394-21.301-1.191-91.731-10.578-162.92-88.452-162.92-182.979 0-4.425 0.157-8.809 0.459-13.152 51.572-11.757 90.091-57.817 90.091-112.95 0-10.371-1.494-20.377-4.044-29.944 28.333-17.776 61.794-28.125 97.714-28.125 101.692 0 184.163 82.432 184.163 184.17 0.001 101.739-82.469 184.17-184.163 184.17zM441.627 267.738c-10.616-36.623-55.709-55.772-100.713-42.767-8.616 2.474-16.64 5.959-23.837 10.232-30.466 18.066-47.067 50.065-38.527 79.671 7.002 24.187 29.010 40.745 56.11 45.466 13.971 2.439 29.301 1.719 44.63-2.699 45.007-13.007 72.938-53.258 62.334-89.904z" />
<glyph unicode="&#x2a;" d="M189.396 111.938l199.685 108.601-199.685 115.607zM255.958 448.25c-123.825 0-224.208-100.383-224.208-224.208 0-123.828 100.383-224.208 224.208-224.208 123.828 0 224.208 100.38 224.208 224.208 0 123.825-100.38 224.208-224.208 224.208zM255.958 24.357c-110.106 0-199.686 89.579-199.686 199.685s89.579 199.686 199.686 199.686c110.105 0 199.685-89.579 199.685-199.686 0-110.105-89.58-199.685-199.685-199.685z" />
<glyph unicode="&#x2b;" d="M63.881 235.417h152.339v152.372h-152.339v-152.372zM63.881 31.215h152.339v152.371h-152.339v-152.371zM267.088 31.015h152.505v152.471h-152.505v-152.471zM394.059 260.751h-102.2v102.201h26.165v24.737h-50.936v-152.471h152.505v51.134h-25.534v-25.601zM418.83 387.689v51.3h-23.243v-51.299h-52.529v-24.172h52.529v-52.097h23.243v52.097h52.594v24.171h-52.594z" />
<glyph unicode="&#x2d;" d="M63.881 387.789h152.339v-152.372h-152.339v152.372zM63.881 183.586h152.339v-152.371h-152.339v152.371zM267.088 183.486h152.505v-152.473h-152.505v152.473zM419.023 387.686v0.003h-151.935v-152.471h152.505v152.468h-0.57zM291.859 260.751v102.201h102.199v-102.201h-102.199z" />
<glyph unicode="&#x2f;" d="M254.857 447.73c-123.479 0-223.624-100.114-223.624-223.625 0-123.512 100.145-223.625 223.624-223.625 123.513 0 223.625 100.112 223.625 223.625 0 123.511-100.112 223.625-223.625 223.625zM313.16 191.551l-0.032 0.048-77.4-77.339c0 0-18.407-14.694-34.505 1.589-16.066 16.318-3.463 33.384-3.463 33.384l77.182 77.074-81.081 73.719c0 0-9.733 21.526 2.309 33.757 12.073 12.244 34.067 2.683 34.067 2.683l81.145-73.768 0.25 0.25 37.938-34.957-36.41-36.44z" />
<glyph unicode="&#x30;" d="M302.093 162.332c10.138 22.379 15.383 46.377 15.688 71.82-10.087 36.645-65.789 22.428-45.615 53.042 18.854 28.611 16.546 79.347-26.357 79.347-0.026 0-0.051 0-0.051 0-0.025 0-0.051 0-0.051 0-0.025 0-0.050 0-0.050 0h-0.051c-42.93 0-45.211-50.735-26.356-79.347 19.058-28.991-29.802-17.79-43.639-47.618-13.837 29.828-62.748 18.627-43.639 47.618 18.829 28.611 16.522 79.347-26.382 79.347-0.025 0-0.025 0-0.050 0s-0.025 0-0.051 0c-0.025 0-0.025 0-0.025 0-0.050 0-0.050 0-0.050 0-42.931 0-45.211-50.735-26.381-79.347 22.123-33.629-47.162-13.178-47.162-65.384 0-36.822 9.604-166.422 73.543-166.422 0 0 0 0 0.050 0 0 0 0 0 0.025 0s0.026 0 0.051 0 0.025 0 0.050 0c45.364 0 63.381 65.256 70.021 116.32 4.714-36.492 15.281-80.232 37.456-102.205 41.914 24.38 72.249 55.854 89.026 92.829zM358.074 277.159c21.388-113.61-38.826-204.588-164.37-250.432 174.127 0 252.637 132.895 263.863 246.402-13.634-8.286-29.6-13.050-46.679-13.050-19.716-0.001-37.938 6.335-52.814 17.080zM410.889 419.709c-38.218 0-69.313-31.095-69.313-69.286 0-38.217 31.096-69.287 69.313-69.287 38.19 0 69.283 31.069 69.283 69.287 0 38.191-31.093 69.286-69.283 69.286zM410.889 311.092c-21.694 0-39.333 17.638-39.333 39.332 0 21.668 17.639 39.332 39.333 39.332 21.666 0 39.304-17.664 39.304-39.332-0.001-21.694-17.638-39.332-39.304-39.332z" />
<glyph unicode="&#x31;" d="M480.396 116.624c-0.144 1.517-74.314 185.914-74.314 185.914 0 0.057-0.027 0.114-0.057 0.171-21.003 50.277-55.943 77.948-98.38 77.948 0 0-187.658 0.401-190.806 0-27.643-3.348-51.507-21.805-67.188-50.391-14.823-26.898-20.631-60.693-16.425-95.203 8.413-68.962 54.226-120.956 106.564-120.956 3.032 0 67.159 0 67.159 0l13.763-33.424c2.404-5.923 8.157-9.785 14.538-9.785h200.907c3.892 0 7.64 1.459 10.559 4.063l28.96 26.298c4.433 4.005 6.036 9.957 4.72 15.365zM274.451 130.932c-14.45 35.54-63.754 156.84-72.482 178.874-5.293 13.278-13.306 27.356-23.263 39.46h128.939c37.086 0 58.203-31.82 69.364-58.576l64.499-159.759h-167.057zM262.548 235.635l19.801-48.875h107.595l-19.803 48.875h-107.593z" />
<glyph unicode="&#x32;" d="M465.974 65.97c-47.279 13.509-86.892 32.807-120.271 55.574-6.626 4.092-5.007 12.934 0.468 15.854 12.259 7.409 33.694 17.708 49.914 24.15l14.265-45.873c3.156-10.146 13.796-16.168 24.177-13.456 10.716 2.789 17.159 13.742 14.341 24.437l-17.942 69.001c-2.92 11.242-14.34 18.048-25.634 15.23-22.113-5.814-40.187-10.85-65.431-21.513-18.96 18.854-33.797 36.899-41.673 47.043 45.897 9.99 67.935 3.235 93.491-2.189h0.079c7.822-3.314 16.819 0.364 20.132 8.188 3.285 7.798-0.366 16.82-8.189 20.106-76.774 31.321-145.937 0.729-168.467-6.884-21.591-7.303-54.451-17.708-80.401-13.432-37.419 6.129-59.195 41.49-75.652 61.364-4.327 6.18-12.726 8.291-19.505 4.59-7.302-3.965-10.014-13.093-6.049-20.422 27.070-49.809 67.021-89.866 131.565-83.059 19.638-17.105 100.767-135.036 270.771-176.395l0.104-0.026c10.116-2.426 20.447 3.521 23.315 13.613 2.972 10.356-3.028 21.152-13.408 24.099zM209.964 266.513c24.799 1.852 43.316 23.392 41.489 48.116-1.826 24.772-23.287 43.315-48.035 41.517-24.723-1.723-43.291-23.289-41.517-48.062 1.827-24.698 23.366-43.317 48.063-41.571zM140.047 379.38c0 30.068-24.382 54.426-54.452 54.426s-54.452-24.357-54.452-54.426 24.383-54.426 54.452-54.426c30.070 0 54.452 24.358 54.452 54.426zM55.344 379.38c0 16.69 13.56 30.251 30.251 30.251 16.689 0 30.251-13.561 30.251-30.251s-13.562-30.251-30.251-30.251c-16.691 0-30.251 13.561-30.251 30.251z" />
<glyph unicode="&#x33;" d="M195.459 178.348h-157.971v-32.019h141.962v-146.746h32.019v162.755zM433.073 404.673c-27.644 27.674-64.415 42.901-103.532 42.901s-75.922-15.228-103.595-42.901c-57.097-57.097-57.097-150.028 0-207.094 27.673-27.674 64.478-42.901 103.595-42.901s75.889 15.228 103.532 42.901c57.097 57.066 57.097 149.997 0 207.094zM415.593 215.058c-22.982-23.014-53.564-35.679-86.052-35.679-32.551 0-63.133 12.665-86.084 35.679-29.58 29.549-40.712 70.699-33.458 109.003v0.094c0.188-0.094 0.375-0.219 0.594-0.344 0.031-0.031 0.094-0.094 0.156-0.094 0.408-0.156 0.814-0.313 1.22-0.469 0.063-0.031 0.094-0.031 0.156-0.031 2.126-0.781 4.065-1.283 5.691-1.658 0.531-0.125 1-0.219 1.438-0.281 0.125-0.031 0.188-0.031 0.281-0.031 1.876 0 3.534 1.064 4.378 2.626 0.094 0.125 0.156 0.281 0.219 0.408 8.505 16.729 21.451 31.268 26.423 36.553 0.344 0.375 0.656 0.656 0.906 0.938 0.626 0.781 1.001 1.783 1.001 2.876v0.125c-0.031 0.313-0.063 0.688-0.063 1.001v0.031c-1.064 10.162-1.564 16.885-1.814 20.419-0.188 2.408-1.533 2.314-3.095 1.595-0.094-0.031-0.156-0.063-0.219-0.094-3.065-1.564-5.754-3.253-7.693-4.565 1.251 1.344 2.533 2.689 3.877 4.033 18.886 18.887 42.87 30.8 68.854 34.459 5.941-0.782 15.321-2.408 25.077-5.472 0.345-0.125 0.751-0.25 1.126-0.375 0.313-0.063 0.625-0.094 0.938-0.094 0.5 0 1.002 0.094 1.471 0.219 0.094 0.031 0.156 0.063 0.219 0.094 0.188 0.094 0.438 0.188 0.688 0.281 0 0.031 0.031 0.031 0.031 0.031 2.784 1.157 8.067 3.033 13.947 3.69 22.48-4.91 43.119-16.167 59.785-32.833 3.94-3.939 7.567-8.067 10.851-12.413 0.313-2.626 1.313-10.507 1.313-19.95v-1.563c0.125-0.688 0.313-1.281 0.689-1.844 0.188-0.251 0.406-0.564 0.656-0.908 0.031-0.031 0.031-0.031 0.031-0.031 3.188-4.503 11.069-16.947 15.322-34.646 0.094-0.406 0.188-0.782 0.25-1.188 0.688-1.939 2.532-3.283 4.689-3.283 0.344 0 0.656 0.031 0.938 0.094h0.063l0.313 0.094 0.533 0.156c-0.156-0.063-0.344-0.125-0.533-0.188 3.004-34.552-8.753-70.105-35.113-96.465zM451.334 311.773c0.063 0 0.156 0.031 0.188 0.063v-0.031l-0.188-0.032zM412.498 270.279c-0.188-0.063-0.438-0.094-0.626-0.156-10.945-2.972-18.699-3.253-22.827-3.065h-0.031c-0.156 0-0.344 0-0.469 0.031h-0.063c-1.626-0.031-3.001-0.844-3.814-2.095-0.063-0.031-0.063-0.031-0.063-0.063-0.188-0.375-0.344-0.75-0.531-1.125 0 0-0.031-0.031-0.031-0.063-6.942-14.102-18.387-25.798-24.766-31.676-0.344-0.344-0.688-0.626-1-0.908 0-0.031 0-0.031 0-0.031-0.657-0.813-1.063-1.844-1.063-3.001 0-1.251 0.469-2.376 1.251-3.251 0.438-0.314 0.875-0.626 1.313-0.97 3.94-2.845 9.443-6.442 13.915-7.942 0.282-0.125 0.595-0.219 0.907-0.281 0.625-0.188 1.219-0.345 1.782-0.407 0 0 20.981 11.727 32.52 28.924 0.031 0.063 0.094 0.156 0.156 0.25 1.221 2.033 2.252 4.503 2.752 6.036 0 0.031 0.031 0.125 0.063 0.156 1.813 6.004 3.127 13.102 3.752 17.229 0.031 0.188 0.063 0.344 0.063 0.5 0.186 2.127-0.97 2.44-3.19 1.908zM361.216 313.556c0.438 0 0.813-0.031 1.188-0.063 1.596-0.094 2.534-0.125 2.534-0.125 8.474 15.916 12.976 36.022 14.384 42.995 0.031 0.156 0.094 0.281 0.094 0.406 0.063 0.281 0.063 0.563 0.063 0.844 0 1.126-0.406 2.158-1.064 3.003-13.382 16.229-33.206 25.734-39.648 28.548-0.125 0.063-0.219 0.063-0.313 0.094-0.5 0.219-1.063 0.344-1.657 0.344-0.656 0-1.281-0.156-1.845-0.375-12.445-6.128-30.112-17.761-37.522-22.764-0.031-0.031-0.063-0.031-0.063-0.063-0.281-0.156-0.532-0.344-0.751-0.469-0.063-0.031-0.094-0.063-0.125-0.094-0.969-0.876-1.594-2.157-1.594-3.565 0-0.313 0.031-0.656 0.094-0.938v-0.125c0.125-0.344 0.25-0.656 0.375-0.97 4.502-11.882 12.382-32.738 15.447-40.9 0-0.031 0-0.063 0-0.063 0.156-0.344 0.25-0.656 0.375-0.969 0-0.031 0.031-0.063 0.063-0.094 0.594-1.158 1.688-2.001 3.001-2.345 0.594 0 1.251-0.031 1.938-0.063 11.257-0.469 35.585-1.751 44.934-2.251 0.029 0.002 0.029 0.002 0.092 0.002zM301.116 232.693c-9.192 14.008-16.821 29.112-19.823 35.209-0.125 0.281-0.251 0.531-0.345 0.75-0.594 1.031-1.656 1.845-2.846 2.158-0.5 0.063-0.938 0.094-1.438 0.156-14.010 1.47-26.766 4.472-33.521 6.286-0.031 0-0.063 0-0.063 0-0.438 0.094-0.813 0.219-1.188 0.313-0.063 0.031-0.094 0.031-0.125 0.031h-0.467c-1.97 0-3.722-1.22-4.409-3.001-0.125-0.439-0.219-0.876-0.313-1.345-2.376-11.632-1.376-23.545-0.939-27.704 0-0.219 0.063-0.469 0.094-0.658 0.125-0.563 0.345-1.094 0.595-1.531 0.219-0.281 0.406-0.531 0.625-0.751 0-0.031 0.063-0.063 0.063-0.094 15.635-19.668 32.207-25.703 37.648-27.204 0.125-0.063 0.219-0.094 0.344-0.125 0.344-0.094 0.594-0.125 0.781-0.219h0.156c0.188-0.031 0.375-0.031 0.563-0.031 0.157 0 0.345 0 0.47 0.031h0.125c0.25 0.063 0.563 0.094 0.813 0.188 0 0 0.031 0 0.063 0 10.444 2.376 17.918 7.536 21.951 10.913 0 0.031 0.063 0.063 0.094 0.094 0.281 0.281 0.563 0.5 0.781 0.719 0.063 0 0.094 0.063 0.125 0.094 0.627 0.814 1.064 1.845 1.064 3.002 0 0.906-0.281 1.783-0.752 2.533-0.001 0.061-0.063 0.093-0.126 0.186z" />
<glyph unicode="&#x34;" d="M414.651 381.523c-42.281 42.313-98.542 65.627-158.34 65.627-59.834 0-116.095-23.314-158.41-65.627-87.323-87.323-87.323-229.426 0-316.749 42.315-42.313 98.575-65.593 158.41-65.593 59.798 0 116.059 23.279 158.34 65.593 87.323 87.324 87.323 229.426 0 316.749zM387.934 91.49c-35.139-35.137-81.898-54.508-131.623-54.508s-96.489 19.371-131.659 54.508c-45.211 45.213-62.259 108.178-51.141 166.73v0.202c0.269-0.202 0.607-0.405 0.875-0.573 0.068-0.034 0.169-0.136 0.237-0.136 0.639-0.202 1.245-0.471 1.919-0.707 0.068-0.034 0.135-0.034 0.203-0.067 3.234-1.179 6.231-1.987 8.69-2.492 0.843-0.203 1.552-0.337 2.224-0.473 0.169-0.034 0.271-0.034 0.406-0.034 2.896 0 5.424 1.617 6.737 4.010 0.135 0.202 0.203 0.403 0.336 0.639 13.004 25.57 32.815 47.772 40.396 55.925 0.505 0.539 0.977 0.977 1.38 1.381 0.943 1.212 1.549 2.762 1.549 4.447v0.169c-0.067 0.505-0.102 1.044-0.135 1.516v0.034c-1.583 15.531-2.391 25.84-2.76 31.23v0.034c-0.305 3.671-2.359 3.538-4.719 2.425-0.135-0.034-0.234-0.067-0.336-0.135-4.648-2.392-8.76-4.986-11.791-7.008 1.886 2.090 3.875 4.145 5.93 6.199 28.871 28.872 65.559 47.099 105.346 52.69 9.030-1.213 23.415-3.707 38.305-8.389 0.539-0.135 1.146-0.337 1.753-0.573 0.471-0.068 0.942-0.102 1.414-0.102 0.81 0 1.549 0.102 2.291 0.337 0.067 0.034 0.203 0.067 0.271 0.102 0.336 0.168 0.672 0.303 1.078 0.471 0.034 0.034 0.065 0.034 0.065 0.034 4.247 1.718 12.332 4.616 21.327 5.626 34.396-7.513 65.965-24.728 91.432-50.197 6.031-5.997 11.557-12.364 16.543-18.967 0.539-4.042 2.021-16.070 2.055-30.557 0-0.809 0-1.583-0.033-2.392 0.2-1.011 0.539-1.955 1.078-2.831 0.268-0.37 0.606-0.842 1.010-1.348 0.034-0.034 0.034-0.034 0.068-0.101 4.851-6.873 16.912-25.874 23.381-52.96 0.167-0.605 0.336-1.212 0.438-1.785 1.044-2.965 3.875-5.053 7.175-5.053 0.505 0 1.013 0.066 1.45 0.168h0.067l0.505 0.135 0.808 0.236c-0.269-0.102-0.539-0.203-0.808-0.27 4.513-52.854-13.411-107.228-53.737-147.59zM442.613 239.421c0.102 0.034 0.202 0.102 0.302 0.135v-0.034l-0.302-0.101zM226.778 218.874l-16.253 24.22c-55.131 81.9-63.736 94.966-66.285 98.791v0.637h72.658v-0.637c1.912-2.868 10.516-17.208 17.527-28.363 7.967-12.747 17.209-27.725 25.494-42.065h0.318c8.286 14.66 18.485 29.957 26.132 42.385 6.692 11.153 15.297 24.538 17.527 28.043v0.637h64.693v-0.637c-2.549-3.824-10.516-16.57-62.143-100.703l-12.109-19.757 17.846-28.046c52.264-81.9 60.868-96.241 62.461-98.789v-0.639h-69.791v0.639c-0.956 1.592-10.516 16.57-19.12 30.911-10.836 18.165-19.758 33.143-27.090 47.482h-0.316c-7.33-14.659-14.978-28.68-25.813-47.482-8.604-14.978-16.252-28.044-17.846-30.594v-0.956h-66.285v0.639c1.912 3.185 10.198 15.934 65.329 103.569l13.066 20.715z" />
<glyph unicode="&#x35;" d="M414.651 381.523c-42.281 42.313-98.542 65.627-158.34 65.627-59.834 0-116.095-23.314-158.41-65.627-87.323-87.323-87.323-229.426 0-316.749 42.315-42.313 98.575-65.593 158.41-65.593 59.798 0 116.059 23.279 158.34 65.593 87.323 87.324 87.323 229.426 0 316.749zM387.934 91.49c-35.139-35.137-81.898-54.508-131.623-54.508s-96.489 19.371-131.659 54.508c-45.211 45.213-62.259 108.178-51.141 166.73 0 0.066 0 0.1 0 0.202 0.269-0.202 0.607-0.405 0.875-0.573 0.068-0.034 0.169-0.136 0.237-0.136 0.639-0.202 1.245-0.471 1.919-0.707 0.068-0.034 0.135-0.034 0.203-0.067 3.234-1.179 6.231-1.987 8.69-2.492 0.843-0.203 1.552-0.337 2.224-0.473 0.169-0.034 0.271-0.034 0.406-0.034 2.896 0 5.424 1.617 6.737 4.010 0.135 0.202 0.203 0.403 0.336 0.639 13.004 25.57 32.815 47.772 40.396 55.925 0.505 0.539 0.977 0.977 1.38 1.381 0.943 1.212 1.549 2.762 1.549 4.447v0.169c-0.067 0.505-0.102 1.044-0.135 1.516v0.034c-1.583 15.531-2.391 25.84-2.76 31.23v0.034c-0.305 3.671-2.359 3.538-4.719 2.425-0.135-0.034-0.234-0.067-0.336-0.135-4.648-2.392-8.76-4.986-11.791-7.008 1.886 2.090 3.875 4.145 5.93 6.199 28.871 28.872 65.559 47.099 105.346 52.69 9.030-1.213 23.415-3.707 38.305-8.389 0.539-0.135 1.146-0.337 1.753-0.573 0.471-0.068 0.942-0.102 1.414-0.102 0.81 0 1.549 0.102 2.291 0.337 0.067 0.034 0.203 0.067 0.271 0.102 0.336 0.168 0.672 0.303 1.078 0.471 0.034 0.034 0.065 0.034 0.065 0.034 4.247 1.718 12.332 4.616 21.327 5.626 34.396-7.513 65.965-24.728 91.432-50.197 6.031-5.997 11.557-12.364 16.543-18.967 0.539-4.042 2.021-16.070 2.055-30.557 0-0.809 0-1.583-0.033-2.392 0.2-1.011 0.539-1.955 1.078-2.831 0.268-0.37 0.606-0.842 1.010-1.348 0.034-0.034 0.034-0.034 0.068-0.101 4.851-6.873 16.912-25.874 23.381-52.96 0.167-0.605 0.336-1.212 0.438-1.785 1.044-2.965 3.875-5.053 7.175-5.053 0.505 0 1.013 0.066 1.45 0.168h0.067l0.505 0.135 0.808 0.236c-0.269-0.102-0.539-0.203-0.808-0.27 4.513-52.854-13.411-107.228-53.737-147.59zM442.613 239.421c0.102 0.034 0.202 0.102 0.302 0.135v-0.034l-0.302-0.101zM403.465 160.285c-0.337-0.102-0.673-0.168-1.011-0.27-17.721-4.817-30.254-5.257-36.889-4.953h-0.102c-0.237 0-0.505 0-0.776 0.034h-0.099c-2.563-0.034-4.852-1.382-6.166-3.369-0.034-0.033-0.102-0.067-0.102-0.101-0.269-0.607-0.539-1.213-0.842-1.819 0 0-0.033-0.034-0.033-0.102-11.252-22.808-29.782-41.741-40.092-51.274-0.539-0.539-1.078-0.978-1.583-1.449 0-0.034-0.034-0.034-0.034-0.034-1.078-1.348-1.752-3.032-1.752-4.885 0-2.021 0.81-3.841 2.091-5.255 0.638-0.473 1.346-1.012 2.122-1.551 6.367-4.648 15.226-10.409 22.47-12.869 0.506-0.201 0.943-0.337 1.448-0.471 1.044-0.304 1.989-0.506 2.932-0.641 0 0 33.959 19.001 52.622 46.795 0.068 0.135 0.136 0.235 0.203 0.37 2.021 3.302 3.672 7.311 4.514 9.804 0 0.067 0.033 0.202 0.067 0.27 2.966 9.703 5.054 21.156 6.099 27.86 0.033 0.304 0.067 0.573 0.102 0.843 0.302 3.404-1.584 3.909-5.189 3.067zM320.521 230.291c0.674 0 1.281-0.034 1.888-0.1 2.594-0.135 4.109-0.203 4.109-0.203 13.679 25.739 21.021 58.283 23.279 69.603 0.034 0.202 0.102 0.439 0.169 0.641 0.068 0.438 0.102 0.909 0.102 1.348 0 1.853-0.708 3.503-1.752 4.885-21.596 26.209-53.736 41.605-64.179 46.153-0.136 0.102-0.305 0.136-0.472 0.169-0.81 0.37-1.719 0.539-2.661 0.539-1.044 0-2.088-0.236-2.999-0.607-20.146-9.904-48.714-28.736-60.742-36.822-0.034-0.034-0.102-0.034-0.102-0.067-0.438-0.303-0.841-0.573-1.213-0.774-0.068-0.068-0.133-0.136-0.201-0.169-1.549-1.414-2.56-3.47-2.56-5.76 0-0.505 0.032-1.044 0.133-1.549 0.067-0.034 0.067-0.102 0.067-0.169 0.169-0.539 0.336-1.078 0.573-1.583 7.31-19.203 20.012-52.96 24.965-66.166 0-0.034 0-0.068 0.034-0.102 0.235-0.539 0.438-1.078 0.607-1.549 0-0.068 0.031-0.135 0.065-0.169 0.979-1.853 2.763-3.234 4.851-3.773h0.034c0.945-0.034 2.023-0.068 3.102-0.101 18.226-0.774 57.574-2.864 72.735-3.639 0.035-0.002 0.069-0.002 0.168-0.036zM223.295 99.441c-14.892 22.674-27.29 47.132-32.074 56.969-0.234 0.473-0.404 0.876-0.606 1.213-1.010 1.686-2.627 2.999-4.581 3.504-0.81 0.101-1.55 0.168-2.359 0.27-22.673 2.392-43.258 7.243-54.239 10.141-0.034 0.033-0.067 0.033-0.067 0.033-0.742 0.17-1.347 0.338-1.953 0.506-0.068 0.033-0.135 0.033-0.169 0.033-0.237 0.034-0.505 0.034-0.776 0.034-3.234 0-6.028-2.021-7.14-4.885-0.169-0.707-0.338-1.416-0.474-2.19-3.906-18.832-2.29-38.102-1.516-44.84 0-0.337 0.034-0.708 0.102-1.045 0.203-0.909 0.539-1.752 1.010-2.459 0.338-0.438 0.641-0.876 1.010-1.247 0-0.034 0.034-0.067 0.068-0.134 25.301-31.803 52.15-41.573 60.911-44.033 0.203-0.067 0.372-0.134 0.539-0.168 0.539-0.169 0.977-0.235 1.314-0.337 0.068 0 0.167 0 0.235-0.067 0.271-0.034 0.606-0.034 0.877-0.034 0.268 0 0.539 0 0.773 0.034 0.102 0 0.169 0 0.169 0.067 0.472 0.067 0.943 0.136 1.347 0.235 0.034 0.034 0.067 0.034 0.135 0.034 16.913 3.875 28.972 12.196 35.475 17.687 0.034 0.034 0.102 0.067 0.169 0.135 0.472 0.404 0.943 0.809 1.281 1.146 0.102 0.032 0.135 0.1 0.167 0.134 1.046 1.313 1.752 3.032 1.752 4.886 0 1.481-0.438 2.862-1.213 4.076-0.034 0.1-0.1 0.202-0.167 0.302z" />
<glyph unicode="&#x36;" d="M398.604 294.986l16.998 17.004c2.166 2.159 2.166 5.671 0 7.84l-23.679 23.715c-2.176 2.166-5.688 2.166-7.848 0l-17.279-17.243c-24.636 19.010-54.191 31.814-86.465 36.207v17.766c17.472 5.954 29.187 17.944 29.187 32.104 0 20.243-23.935 36.104-54.494 36.104-30.542 0-54.463-15.861-54.463-36.104 0-14.16 11.695-26.14 29.147-32.094v-17.991c-31.925-4.588-61.168-17.412-85.547-36.333l-17.363 17.479c-1.043 1.043-2.452 1.627-3.92 1.641-1.521 0.312-2.884-0.578-3.927-1.621l-23.765-23.612c-2.176-2.156-2.186-5.671-0.030-7.845l17.329-17.456c-24.465-31.051-39.19-70.109-39.19-112.612 0-100.582 81.836-182.419 182.421-182.419 100.576 0 182.402 81.837 182.402 182.419-0.001 42.696-14.851 81.934-39.514 113.051zM221.95 412.379c0 5.857 13.189 14.705 33.073 14.705 19.905 0 33.104-8.848 33.104-14.705 0-5.867-13.199-14.738-33.104-14.738-19.883 0-33.073 8.871-33.073 14.738zM265.596 33.418h-19.798c-73.764 4.891-132.925 63.551-138.537 137.115l-0.153 19.808c4.402 78.259 69.269 140.626 148.606 140.626 79.328 0 144.186-62.368 148.587-140.626l-0.153-19.808c-5.61-73.574-64.779-132.245-138.552-137.115zM263.99 209.551l0.077 79.708c0.003 1.914-0.754 3.655-1.983 4.927-1.279 1.318-2.851 2.149-4.831 2.156-3.9 0.006-7.289-3.137-7.302-7.030l-0.080-79.668c-4.579-1.159-8.954-3.375-12.612-6.903-11.136-10.758-11.442-28.507-0.69-39.637 10.761-11.146 28.525-11.475 39.666-0.721 11.163 10.781 11.426 28.52 0.667 39.666-3.665 3.788-8.17 6.229-12.912 7.502z" />
<glyph unicode="&#x37;" d="M397.058 295.042l16.99 17.001c2.165 2.159 2.165 5.667 0 7.834l-23.67 23.708c-2.176 2.166-5.686 2.166-7.845 0l-17.273-17.237c-24.626 19.005-54.171 31.804-86.431 36.195v17.758c17.464 5.95 29.175 17.937 29.175 32.090 0 20.237-23.925 36.092-54.473 36.092-30.532 0-54.443-15.855-54.443-36.092 0-14.153 11.691-26.129 29.135-32.080v-17.985c-31.912-4.588-61.145-17.408-85.515-36.32l-17.357 17.474c-1.043 1.042-2.45 1.627-3.919 1.638-1.521 0.312-2.883-0.578-3.925-1.618l-23.756-23.604c-2.176-2.157-2.186-5.668-0.030-7.843l17.323-17.446c-24.457-31.041-39.176-70.084-39.176-112.571 0-100.544 81.806-182.35 182.353-182.35 100.537 0 182.334 81.806 182.334 182.35 0 42.679-14.846 81.902-39.497 113.006zM220.468 412.391c0 5.856 13.186 14.703 33.063 14.703 19.897 0 33.090-8.846 33.090-14.703 0-5.865-13.193-14.729-33.090-14.729-19.877 0-33.063 8.864-33.063 14.729zM264.1 33.574h-19.792c-73.736 4.888-132.875 63.526-138.484 137.063l-0.153 19.801c4.401 78.229 69.242 140.574 148.55 140.574 79.299 0 144.132-62.345 148.532-140.574l-0.152-19.801c-5.611-73.546-64.756-132.195-138.501-137.063zM238.844 163.693v77.89h-22.589c-22.431-29.443-47.981-63.716-60.445-81.63v-17.602h54.839v-22.279h28.505v22.28h18.382v21.342h-18.692zM211.112 163.693h-25.545v0.312c7.476 10.903 19.315 27.104 26.014 36.141h0.156c-0.625-13.398-0.625-36.453-0.625-36.453zM322.354 194.38c-7.945 3.739-18.538 5.298-25.858 5.298l2.18 16.98h41.75c0.312 6.23 0.937 16.356 1.401 24.925h-66.828c-2.338-21.654-4.828-43.308-7.322-65.118 4.051 0.468 8.412 0.933 14.799 0.933 7.635 0 15.268-1.089 19.628-2.958 4.831-2.18 10.593-6.699 10.593-15.111 0-6.387-3.582-10.592-7.786-13.086-3.74-2.179-9.351-3.427-13.866-3.427-6.544 0-13.554 0.936-18.539 2.65-2.179 0.776-4.985 1.558-7.010 2.803h-0.466c-0.625-5.918-1.714-15.889-2.649-23.992 8.1-3.425 20.876-5.449 27.888-5.449 15.263 0 27.415 2.646 38.787 11.84 6.542 5.294 14.334 17.134 14.334 30.218v0.156c-0.002 18.227-9.821 28.040-21.036 33.338z" />
<glyph unicode="&#x38;" d="M250.601 317.485c-0.282 0.023-27.819-30.376-36.076-49.188 0 0 0.047-0.023 0.047-0.047 6.145-12.245 15.434-27.959 25.498-37.085 0 0 16.772 10.392 50.783 23.621v0.212c0 0-1.807 26.857 3.237 52.872 0-0.001-20.079 8.678-43.489 9.615zM338.47 223.777c2.017-17.336 1.126-41.918 0.117-50.222l45.155-12.926c0 0 23.949 21.863 33.543 45.93-5.959 11.774-21.393 34.481-27.397 41.471 0 0-20.736-15.996-51.418-24.253zM317.546 410.867c-69.173 0-128.402-43.396-151.904-104.359l-124.323-113.696c-0.797-0.727-1.126-1.876-0.75-2.979 0.517-1.454 2.112-2.229 3.566-1.711l111.935 39.641c1.455-11.635 4.152-22.871 7.928-33.59l-131.122-110.621c-1.080-0.939-1.501-2.44-0.962-3.847 0.68-1.736 2.65-2.58 4.387-1.899l159.366 62.604c8.208-9.265 17.451-17.591 27.538-24.817l-90.638-72.504c-0.844-0.681-1.266-1.83-0.938-2.956 0.422-1.478 1.97-2.322 3.448-1.9l167.294 47.876c4.996-0.469 10.063-0.727 15.176-0.727 89.723 0 162.721 72.996 162.721 162.742s-72.999 162.743-162.722 162.743zM317.546 119.816c-12.057 0-23.69 1.688-34.762 4.784l0.117 0.023-0.164 24.185c-9.056 5.161-34.388 19.915-45.53 30.493 0 0-13.346-9.569-19.54-11.634-6.802 9.382-27.843 34.74-28.428 80.456-0.564 42.528 20.782 80.269 52.753 103.633l14.73-4.599c0 0 15.036 13.558 31.691 25.943 9.336 2.159 19.094 3.331 29.132 3.331 15.248 0 29.908-2.674 43.489-7.6l-12.243-33.050c0 0 27.468-12.033 46.515-31.081 0 0 17.896 9.781 28.358 15.435 13.979-20.547 22.19-45.317 22.19-72.013 0.001-70.743-57.561-128.306-128.308-128.306z" />
<glyph unicode="&#x39;" d="M255.691 144.475c27.303 0 49.442 30.853 49.442 58.86 0 28.009-22.139 50.739-49.442 50.739s-49.441-22.73-49.441-50.739c0-28.008 22.138-58.86 49.441-58.86zM476.435 323.935c-3.911 4.039-13.65 3.072-21.477 4.027-13.288 1.638-25.188 7.11-35.518 15.654-21.638 17.917-28.781 24.72-53.264 24.72h-220.971c-24.47 0-31.638-6.803-53.264-24.72-10.329-8.543-22.229-14.016-35.539-15.654-7.247-0.888-17.611-0.035-21.444-4.027-3.401-3.549-3.664-9.704-0.637-14.994 2.548-4.438 8.817-6.61 10.443-7.11-0.386-1.662-1.684-8.167 0.865-12.605 2.548-4.447 8.816-6.621 10.444-7.121-0.387-1.662-1.684-8.168 0.865-12.617 2.537-4.437 8.816-6.609 10.443-7.11-0.386-1.66-1.684-8.168 0.865-12.604 8.851-15.449 37.098 5.188 45.778 17.814 5.814-63.639 24.163-127.436 53.070-189.323h177.196c28.896 61.888 47.257 125.685 53.059 189.323 9.374-13.616 37.041-33.081 45.778-17.814 2.549 4.436 1.273 10.944 0.864 12.604 1.639 0.501 7.918 2.673 10.467 7.11 2.548 4.448 1.229 10.955 0.864 12.617 1.616 0.5 7.873 2.673 10.421 7.121 2.548 4.438 1.273 10.944 0.864 12.605 1.638 0.5 7.919 2.673 10.468 7.11 3 5.29 2.75 11.445-0.64 14.994zM303.677 333.502c0.432 1.332 1.682 2.218 3.070 2.23l10.376 0.079 3.412 9.954c0.456 1.331 1.707 2.219 3.117 2.219 1.389 0 2.639-0.888 3.094-2.219l3.437-9.954 10.375-0.079c1.365-0.012 2.617-0.911 3.050-2.23 0.454-1.32 0.022-2.788-1.093-3.641l-8.328-6.461 3.026-9.817c0.41-1.332-0.067-2.776-1.205-3.595-1.093-0.831-2.641-0.853-3.778-0.080l-8.577 5.825-8.577-5.825c-0.546-0.375-1.206-0.569-1.866-0.569-0.682 0-1.365 0.216-1.935 0.649-1.114 0.819-1.591 2.264-1.183 3.595l3.004 9.817-8.327 6.461c-1.117 0.854-1.547 2.322-1.092 3.641zM235.714 333.502c0.443 1.332 1.684 2.218 3.083 2.23l10.375 0.079 3.413 9.966c0.455 1.319 1.707 2.207 3.106 2.207 1.411 0 2.639-0.888 3.094-2.219l3.413-9.954 10.375-0.079c1.411-0.012 2.64-0.911 3.095-2.23 0.454-1.32 0-2.788-1.092-3.641l-8.328-6.461 3.003-9.817c0.409-1.332-0.067-2.776-1.183-3.595-1.138-0.831-2.639-0.853-3.8-0.080l-8.578 5.825-8.578-5.825c-0.557-0.375-1.206-0.569-1.842-0.569-0.694 0-1.377 0.216-1.957 0.649-1.115 0.819-1.592 2.264-1.183 3.595l3.003 9.817-8.327 6.461c-1.103 0.854-1.535 2.322-1.092 3.641zM167.752 333.502c0.456 1.332 1.685 2.218 3.084 2.23l10.375 0.079 3.425 9.954c0.443 1.331 1.694 2.219 3.094 2.219 1.41 0 2.65-0.888 3.105-2.219l3.413-9.954 10.375-0.079c1.4-0.012 2.639-0.911 3.082-2.23 0.445-1.32 0-2.788-1.092-3.641l-8.326-6.461 3.003-9.817c0.409-1.332-0.068-2.776-1.183-3.595-0.581-0.433-1.264-0.649-1.958-0.649-0.637 0-1.285 0.194-1.842 0.569l-8.578 5.825-8.578-5.825c-1.149-0.773-2.673-0.75-3.799 0.080-1.116 0.819-1.594 2.264-1.183 3.595l3.014 9.817-8.327 6.461c-1.104 0.854-1.547 2.322-1.104 3.641zM255.691 116.693c-62.274 0-87.813 89.623-97.266 167.982h194.532c-9.441-78.359-34.992-167.982-97.266-167.982z" />
<glyph unicode="&#x3a;" d="M288.123 220.747c26.368-2.361 50.027 21.305 52.854 52.858 2.818 31.544-16.269 59.036-42.635 61.389-26.365 2.361-50.028-21.305-52.845-52.855-2.821-31.553 16.261-59.034 42.626-61.393zM123.295 214.192c10.058-7.912 41.671-29.795 62.475-45.654 0.346-0.262 0.645-0.515 0.99-0.774 8.135-6.327 11.325-10.902 13.498-21.548 0.161-0.719 0.266-1.464 0.415-2.288l12.711-73.984c51.329 0.524 64.616 28.998 96.993 28.998 17.601 0 28.534-8.419 43.053-16.195-0.24 11.974-0.675 26.458-1.474 39.697 2.296-0.392 5.497-2.491 7.466-10.495 4.167-16.933 6.993-34.859 7.067-35.313 9.262-3.596 20.491-6.215 35.037-6.611l-0.265 1.856c0 0 0.589 34.767-15.129 72.281-15.022 35.857-75.618 52.642-75.618 52.642l0.263-0.506c-23.207 7.591-83.046 21.894-83.046 21.894-17.107 9.502-36.052 15.837-53.264 25.403-0.626 0.363-1.298 0.731-1.92 1.095-6.543 4.019-12.232 9.493-10.538 19.722l0.088 0.474c4.76 27.088 15.482 87.833 17.971 101.308 1 5.405 1.606 10.197 1.579 14.353 23.985 1.441 42.999 21.282 42.999 45.626 0 25.293-20.487 45.779-45.768 45.779-25.287 0-45.769-20.487-45.769-45.779 0-14.179 6.451-26.849 16.569-35.242-2.822-4.088-5.014-9.392-6.441-15.472-3.894-16.513-24.882-94.716-30.705-117.419-5.874-22.741-2.877-33.145 10.763-43.845zM148.185 426.169c0 16.937 13.769 30.702 30.692 30.702 16.919 0 30.689-13.765 30.689-30.702 0-16.913-13.77-30.688-30.689-30.688-1.124 0-2.233 0.069-3.328 0.189-1.672 1.29-3.728 2.339-6.243 3.13-1.988 0.631-3.89 0.857-5.709 0.796-9.197 5.309-15.412 15.221-15.412 26.573zM498.384 76.938c-30.99-2.365-50.353-29.048-93.206-29.048-52.533 0-62.122 29.048-94.803 29.048s-45.851-29.048-98.387-29.048c-52.532 0-65.698 29.048-98.385 29.048-32.68 0-47.16-32.778-99.112-38.347-10.022-1.065-7.891-14.038 0.722-14.038 63.963 0 75.776 15.639 98.389 15.639 22.608 0 52.726-33.651 98.385-33.651 45.663 0 75.776 26.389 98.388 26.389 22.563 0 45.37-20.914 94.803-16.752 41.543 3.534 56.979 35.88 93.206 48.223 8.861 3.053 7.116 13.075 0 12.538z" />
<glyph unicode="&#x3b;" d="M158.308 381.662c11.517 6.665 15.448 21.402 8.785 32.929-6.675 11.531-21.405 15.457-32.929 8.784-11.498-6.655-15.45-21.402-8.784-32.928 6.657-11.531 21.427-15.438 32.93-8.784zM71.229 323.544c26.216-2.649 40.019-0.72 62.567 13.029-1.544-19.732-16.37-47.684-8.202-66.583 5.916-14.157 32.714-20.728 35-35.629 1.644-10.851-16.552-50.26-17.692-74.574-33.79-25.375-52.777-46.423-47.733-55.733 8.895-16.395 88.979 9.822 178.85 58.567 89.877 48.759 155.526 101.569 146.634 117.968-7.526 13.875-65.993-2.756-138.235-37.724-2.63 4.031-4.939 7.48-6.070 9.495-7.154 13.619-17.423 24.907-27.738 36.2l-15.746 15.758c-15.133 7.462-38.203-4.232-54.304-3.16l10.134 39.067c1.304 4.781 1.91 12.353 6.551 15.171 13.005 7.573 31.104 8.346 45.934 10.873 6.685 1.146 27.51 4.376 30.109 11.941 4.108 11.962-16.097 9.341-24.291 8.211-37.058-5.087-55.779-10.134-77.858-10.241l-23.489-8.188c-12.285-7.499-33.333-19.341-47.917-20.253-12.623-0.825-57.194 0.474-67.216-9.389-13.24-13.023 31.541-14.042 40.715-14.806zM222.983 272.77c7.638-4.986 23.255-24.811 38.738-40.241-6.572-3.38-13.21-6.876-19.913-10.512-22.95-12.447-44.305-25.159-63.261-37.462 7.033 14.416 18.499 47.451 15.095 61.109-2.243 9.133-15.375 16.478-22.263 22.242 11.749 3.149 40.91 11.845 51.602 4.863zM449.113 48.911c-22.834 19.277-33.552 45.010-43.71 80.452l-2.15 7.466c-4.111 14.863-6.889 22.897-20.469 28.139-2.404 0.93-4.99 1.459-7.652 1.69-14.026 1.212-30.308-6.214-37.954-9.741l-6.409-2.654 2.183 0.865-57.898-26.243-21.593-8.933c-76.274-31.485-136.681-56.315-185.153-46.085-25.757 2.439-45.896 10.245-60.765 16.382 8.649-11.585 24.104-26.188 53.413-38.234 63.983-29.575 157.991 2.815 232.768 34.241l70.014 33.589 8.486-15.781c11.921-27.407 36.221-63.544 65.41-75.017 31.249-10.93 53.341-9.858 67.523-6.33-16.19 4.926-36.611 11.56-56.044 26.195z" />
<glyph unicode="&#x3c;" d="M315.357-0.19c-9.557 0-19.122 3.648-26.416 10.938l-186.951 186.944c-7.004 6.999-10.932 16.506-10.932 26.405 0 9.917 3.928 19.417 10.932 26.421l186.951 186.94c14.591 14.592 38.251 14.581 52.831 0 14.587-14.591 14.587-38.246 0-52.832l-160.539-160.528 160.539-160.522c14.587-14.587 14.587-38.235 0-52.827-7.294-7.291-16.858-10.939-26.415-10.939z" />
<glyph unicode="&#x3d;" d="M300.047 118.808l-54.893-54.965v171.009c0 6.37-3.239 11.975-8.118 15.288-2.983 2.001-6.515 3.167-10.336 3.167-5.097 0-9.719-2.075-13.068-5.424-3.348-3.313-5.424-7.972-5.424-13.031v-171.009l-54.891 54.965c-7.207 7.207-18.893 7.207-26.099 0-3.604-3.604-5.424-8.336-5.424-13.068s1.82-9.464 5.388-13.067l86.449-86.413c0.182-0.183 0.4-0.328 0.62-0.474 0.362-0.363 0.727-0.691 1.127-1.020 0.329-0.254 0.691-0.509 1.056-0.728 0.365-0.255 0.8-0.509 1.165-0.765 0.438-0.218 0.874-0.437 1.312-0.654 0.218-0.109 0.509-0.255 0.727-0.365 0.147-0.035 0.256-0.072 0.4-0.108 0.474-0.218 0.947-0.363 1.42-0.51 0.4-0.073 0.8-0.219 1.2-0.291 0.474-0.146 0.947-0.182 1.456-0.255 0.4-0.072 0.765-0.109 1.203-0.182h2.692c0.511 0.035 1.021 0.109 1.494 0.218 0.4 0.037 0.765 0.073 1.127 0.183 0.511 0.108 0.984 0.254 1.494 0.4 0.364 0.108 0.765 0.219 1.127 0.399 0.183 0.037 0.365 0.073 0.511 0.146 0.291 0.11 0.583 0.291 0.874 0.438 0.362 0.182 0.727 0.364 1.092 0.547 0.436 0.254 0.874 0.545 1.273 0.836 0.327 0.219 0.656 0.438 0.982 0.691 0.438 0.328 0.801 0.656 1.238 1.020 0.145 0.183 0.327 0.291 0.509 0.474l86.413 86.413c7.209 7.243 7.209 18.929 0 26.136-7.205 7.206-18.889 7.206-26.096-0.001zM410.266 355.809l-86.451 86.45c-0.181 0.146-0.363 0.291-0.582 0.474-0.363 0.363-0.728 0.691-1.128 1.019-0.329 0.254-0.691 0.509-1.056 0.728-0.365 0.218-0.801 0.509-1.165 0.728-0.438 0.254-0.874 0.472-1.347 0.691-0.219 0.109-0.474 0.218-0.691 0.328-0.146 0.036-0.291 0.072-0.438 0.146-0.437 0.182-0.945 0.327-1.419 0.473-0.399 0.11-0.765 0.219-1.165 0.328-0.473 0.108-0.947 0.182-1.455 0.219-0.4 0.072-0.801 0.146-1.203 0.181-0.51 0.037-1.018 0.037-1.492 0.037-0.399 0-0.8 0-1.199-0.037-0.512-0.036-1.021-0.109-1.494-0.218-0.4-0.037-0.765-0.074-1.127-0.146-0.512-0.146-1.021-0.291-1.529-0.437-0.365-0.109-0.729-0.219-1.092-0.364-0.182-0.073-0.365-0.109-0.512-0.146-0.326-0.146-0.582-0.327-0.873-0.437-0.363-0.218-0.727-0.364-1.092-0.583-0.436-0.218-0.873-0.546-1.309-0.8-0.33-0.254-0.656-0.437-0.947-0.691-0.438-0.328-0.801-0.692-1.238-1.056-0.145-0.146-0.365-0.291-0.51-0.473l-86.413-86.414c-7.245-7.208-7.245-18.891 0-26.099 7.207-7.207 18.854-7.207 26.062 0l54.892 54.928v-170.972c0-6.406 3.275-11.976 8.154-15.324 2.947-1.966 6.477-3.13 10.336-3.13 5.098 0 9.719 2.074 13.031 5.387 3.385 3.349 5.424 7.972 5.424 13.067v170.972l54.928-54.928c7.207-7.207 18.855-7.207 26.1 0 3.604 3.604 5.424 8.336 5.424 13.067-0.001 4.733-1.821 9.429-5.424 13.032z" />
<glyph unicode="&#x3e;" d="M161.415 448.398c9.557 0 19.122-3.648 26.416-10.938l186.951-186.945c7.004-6.999 10.933-16.506 10.933-26.405 0-9.917-3.929-19.417-10.933-26.421l-186.951-186.939c-14.591-14.593-38.251-14.581-52.831 0-14.587 14.591-14.587 38.246 0 52.832l160.538 160.528-160.538 160.523c-14.587 14.587-14.587 38.235 0 52.827 7.294 7.29 16.858 10.938 26.415 10.938z" />
<glyph unicode="&#x40;" d="M473.227 416.705c-0.289 1.448-0.61 2.868-0.899 4.315-0.023 0.082-0.023 0.131-0.051 0.159-0.444 1.552-1.054 3.049-1.814 4.497-1.267 2.526-2.946 4.843-5.029 6.922-3.366 3.371-7.339 5.658-11.572 6.895-0.163 0.048-0.321 0.101-0.555 0.129-0.946 0.212-1.894 0.422-2.84 0.58-0.316 0.105-0.634 0.154-0.95 0.212-34.309 7.101-69.461 8.994-104.193 5.628-0.998-0.21-1.945-0.686-2.733-1.472-2.079-2.081-2.079-5.451 0-7.526 0.024-0.026 0.048-0.054 0.079-0.077 0.444-0.293 0.844-0.58 1.283-0.868 10.713-7.604 21.24-15.659 31.474-24.208 5.889-4.842 11.683-9.842 17.39-15.026 6.393-5.816 12.713-11.814 18.892-17.998 21.291-21.283 40.336-43.964 57.18-67.697 0.31-0.475 0.626-0.897 0.942-1.366l0.024-0.030c2.083-2.075 5.449-2.075 7.528 0 0.788 0.792 1.264 1.737 1.474 2.739 3.364 34.731 1.466 69.88-5.63 104.192zM464.462 251.288c-21.6 36.125-47.964 70.17-79.065 101.271-9.291 9.287-18.839 18.156-28.653 26.6-5.841 5.054-11.786 9.945-17.813 14.709-17.6 13.865-35.913 26.441-54.78 37.729-0.289 0.186-0.578 0.369-0.871 0.555-0.075 0.030-0.099 0.049-0.158 0.049-1.386 0.713-2.994 0.953-4.495 0.713-0.657-0.186-1.264-0.368-1.893-0.58-52.414-16.045-101.772-44.835-143.24-86.303-41.465-41.467-70.228-90.798-86.303-143.186-0.236-0.657-0.422-1.312-0.604-2.024-0.24-1.497 0-3.053 0.709-4.443 0-0.056 0-0.106 0.053-0.162 0.186-0.289 0.369-0.574 0.55-0.863 11.292-18.867 23.868-37.181 37.761-54.808 4.762-6.028 9.657-11.977 14.705-17.814 8.447-9.813 17.289-19.343 26.576-28.626 31.101-31.104 65.146-57.465 101.272-79.064 0.315-0.214 0.604-0.396 0.919-0.555 1.478-0.736 3.083-0.975 4.604-0.657 0.082-0.023 0.139-0.023 0.163 0 0.604 0.182 1.184 0.341 1.76 0.551 52.388 16.079 101.722 44.835 143.184 86.301 41.465 41.469 70.253 90.827 86.305 143.239 0.182 0.553 0.364 1.109 0.526 1.683v0.054c0.317 1.582 0.075 3.235-0.661 4.713-0.159 0.308-0.341 0.597-0.551 0.918zM308.775 328.616c-2.915-2.925-7.628-2.895-10.519 0l-5.767 5.759c-1.767 1.764-4.476 2.051-6.495 0.762-0.237-0.129-0.424-0.259-0.634-0.418-3.049-2.21-6.079-4.443-9.081-6.707-0.289-0.187-0.574-0.422-0.836-0.686-2.055-2.057-2.055-5.422 0.024-7.503l2.97-2.972c2.896-2.891 2.896-7.629 0-10.525-2.923-2.918-7.628-2.895-10.526 0l-5.204 5.212c-1.742 1.735-4.396 2.028-6.42 0.844-0.451-0.398-0.896-0.739-1.314-1.103-2.636-2.163-5.264-4.319-7.844-6.531-0.075-0.079-0.186-0.129-0.263-0.21-0.311-0.263-0.581-0.526-0.868-0.762-1.893-2.051-1.841-5.259 0.183-7.287l3.552-3.552c2.897-2.897 2.897-7.634 0-10.525-2.919-2.919-7.627-2.895-10.523 0l-4.607 4.602c-2.052 2.053-5.414 2.053-7.495-0.024-2.818-2.608-5.604-5.236-8.418-7.895-0.058-0.050-0.081-0.077-0.135-0.131-0.027-0.027-0.051-0.047-0.081-0.077-1.97-2.079-1.946-5.368 0.107-7.422l4.049-4.049c2.921-2.925 2.897-7.634 0-10.529-2.915-2.921-7.598-2.921-10.519 0l-4.056 4.056c-2.051 2.051-5.336 2.081-7.445 0.077-0.024-0.024-0.054-0.054-0.077-0.077-0.054-0.054-0.081-0.081-0.135-0.135-2.655-2.814-5.283-5.604-7.891-8.414-2.051-2.057-2.051-5.421 0-7.475l4.602-4.602c2.897-2.899 2.897-7.631 0-10.528-2.915-2.919-7.632-2.896-10.523 0l-3.552 3.552c-2.024 2.024-5.232 2.077-7.317 0.159-0.236-0.291-0.495-0.551-0.762-0.872-0.048-0.101-0.129-0.182-0.206-0.259-2.21-2.58-4.345-5.184-6.501-7.816-0.37-0.422-0.711-0.865-1.103-1.313-1.184-2.027-0.897-4.689 0.839-6.424l5.21-5.208c2.897-2.895 2.897-7.632 0-10.526-2.918-2.923-7.631-2.891-10.522 0l-2.973 2.979c-2.081 2.075-5.447 2.075-7.526 0-0.266-0.266-0.499-0.555-0.688-0.84-2.257-3.002-4.473-6.004-6.653-9.029-0.158-0.215-0.316-0.42-0.447-0.658-1.266-2-1.030-4.713 0.762-6.503l5.76-5.758c2.896-2.892 2.896-7.628 0-10.527-2.92-2.919-7.629-2.895-10.524 0l-31.729 31.73c-2.896 2.895-2.919 7.607 0 10.526 2.896 2.899 7.633 2.891 10.524 0l2.632-2.63c2.081-2.075 5.447-2.075 7.499-0.023 0.081 0.075 0.133 0.127 0.186 0.229 0.212 0.32 0.422 0.586 0.657 0.871 2.028 2.82 4.103 5.632 6.18 8.447 0.291 0.289 0.557 0.606 0.739 0.947 1.313 2.051 1.049 4.788-0.739 6.576l-5.259 5.266c-2.895 2.891-2.925 7.604 0 10.522 2.891 2.895 7.628 2.891 10.523 0l3.16-3.154c2.048-2.057 5.418-2.057 7.469 0 0.264 0.263 0.503 0.55 0.685 0.839 2.236 2.709 4.497 5.446 6.79 8.101 0.26 0.317 0.527 0.634 0.763 0.927 1.366 2.052 1.127 4.861-0.657 6.654l-4.767 4.762c-2.919 2.918-2.919 7.604 0 10.523 2.897 2.896 7.604 2.924 10.525 0l3.71-3.711c1.971-1.971 5.183-2.024 7.24-0.183 0.206 0.212 0.365 0.418 0.574 0.634 0.082 0.024 0.131 0.077 0.159 0.156 2.317 2.472 4.632 4.945 6.976 7.395 0.418 0.422 0.839 0.891 1.285 1.342l0.028 0.024c1.338 2.081 1.103 4.844-0.713 6.659l-4.287 4.287c-2.895 2.895-2.919 7.604 0 10.523 2.897 2.895 7.63 2.895 10.528 0l4.287-4.285c1.812-1.818 4.603-2.028 6.654-0.715l0.030 0.028c0.445 0.451 0.921 0.873 1.342 1.291 2.365 2.263 4.737 4.524 7.129 6.764 0.081 0.020 0.158 0.101 0.21 0.153 0.265 0.265 0.576 0.528 0.839 0.792 1.869 2.075 1.79 5.263-0.182 7.235l-3.711 3.711c-2.918 2.919-2.918 7.604 0 10.523 2.897 2.895 7.604 2.924 10.525 0l4.76-4.765c1.792-1.786 4.608-2.023 6.66-0.657 0.287 0.24 0.604 0.503 0.921 0.762 2.659 2.291 5.368 4.529 8.079 6.765 0.287 0.182 0.574 0.422 0.837 0.685l0.030 0.024c2.051 2.104 2.051 5.423 0 7.475l-3.161 3.154c-2.891 2.895-2.918 7.608 0 10.529 2.897 2.891 7.634 2.891 10.525 0l5.263-5.264c1.789-1.79 4.55-2.023 6.579-0.738 0.345 0.182 0.634 0.422 0.923 0.709 2.788 2.057 5.576 4.156 8.392 6.184 0.341 0.24 0.657 0.499 0.998 0.734 0.075 0.028 0.107 0.058 0.158 0.109 2.079 2.077 2.079 5.448 0 7.523l-2.634 2.631c-2.891 2.897-2.918 7.604 0 10.525 2.899 2.895 7.636 2.895 10.531 0l31.726-31.728c2.9-2.895 2.9-7.632 0.001-10.523zM169.696 9.669c-0.475 0.316-0.897 0.63-1.366 0.95-23.732 16.84-46.416 35.889-67.703 57.172-6.18 6.183-12.153 12.472-17.968 18.867-5.185 5.707-10.208 11.521-15.050 17.414-8.554 10.237-16.604 20.765-24.208 31.474-0.287 0.443-0.581 0.839-0.868 1.287-0.023 0.023-0.053 0.051-0.077 0.075-2.081 2.083-5.451 2.083-7.526 0-0.786-0.784-1.262-1.735-1.474-2.732-3.364-34.888-1.447-70.227 5.735-104.666 0-0.158 0.053-0.316 0.107-0.475 0.156-0.942 0.368-1.894 0.574-2.844 0.058-0.206 0.081-0.393 0.135-0.551 1.237-4.237 3.528-8.21 6.895-11.576 2.079-2.079 4.419-3.738 6.917-5.025 1.45-0.765 2.975-1.339 4.503-1.814 0.206-0.051 0.422-0.106 0.686-0.162 1.103-0.262 2.21-0.471 3.313-0.681 34.443-7.185 69.778-9.105 104.667-5.739 1.002 0.21 1.947 0.689 2.733 1.474 2.081 2.079 2.081 5.449 0 7.528l-0.025 0.024z" />
<glyph unicode="&#x41;" d="M255.99-16.266c132.474 0 240.26 107.779 240.26 240.252 0 132.486-107.787 240.264-240.26 240.264-132.466 0-240.24-107.779-240.24-240.264 0-132.474 107.774-240.252 240.24-240.252zM255.99 34.457c-50.98 0-97.257 20.341-131.345 53.224 21.161-4.498 41.755-6.459 61.165-6.459 51.694 0 95.244 12.906 121.081 22.805 5.608-17.051 9.926-36.548 12.166-58.553-19.753-7.001-40.935-11.015-63.066-11.015zM366.808 70.55c-14.623 90.599-60.479 142.697-83.316 163.501 2.695 11.631 8.519 30.573 21.149 52.775 31.873-26.511 92.581-88.962 97.879-182.892-10.382-12.64-22.457-23.776-35.712-33.385zM379.052 367.853c40.618-34.8 66.475-86.336 66.475-143.867 0-15.673-2.12-30.831-5.734-45.401-24.529 75.279-75.72 125.44-105.3 149.423 11.967 13.394 26.656 26.899 44.56 39.844zM286.582 410.82c16.386-2.674 32.079-7.37 46.772-13.98-71.143-57.884-93.236-123.835-99.873-154.11-11.492-3.535-30.822-7.913-56.243-8.084 7.006 40.816 30.703 124.619 109.343 176.174zM203.493 405.967c-53.029-58.958-70.862-128.471-76.845-166.077-17.599 3.685-36.66 9.697-56.846 18.764 13.117 70.673 65.523 127.606 133.691 147.313zM67.439 204.707c40.697-15.542 77.496-20.693 108.028-20.693 33.822 0 60.016 6.17 75.549 11.104 8.785-8.183 22.25-22.735 35.109-44.648-38.855-14.337-123.26-35.716-207.234 6.586-5.722 15.098-9.764 31.008-11.452 47.651z" />
<glyph unicode="&#x42;" d="M420.316 362.966c0.473 2.57 0.428 4.895-0.169 7.078-0.603 2.149-1.716 4.159-3.387 5.963-1.631 1.839-4.207 3.692-7.77 5.62-5.963 3.128-11.539 3.899-16.68 2.318-5.194-1.631-9.74-6.099-13.644-13.431-2.615-4.981-3.988-9.435-3.988-13.301 0-3.859 0.939-7.248 2.913-10.031 1.975-2.835 5.147-5.407 9.616-7.77 3.687-1.969 7.032-2.998 10.082-3.173 3.038-0.175 5.874 0.473 8.445 1.931 2.531 1.503 4.502 3.562 5.92 6.262 2.142 3.95 2.491 7.938 1.158 12.012-1.373 4.034-4.034 7.084-7.979 9.176-2.059 1.119-4.034 1.677-5.925 1.891-1.884 0.175-3.943-0.039-6.127-0.642 2.701 4.159 4.805 6.695 6.301 7.589 2.104 1.243 4.159 1.334 6.139 0.303 1.108-0.601 1.839-1.411 2.273-2.446 0.428-1.069 0.389-2.487-0.135-4.204l12.957-5.147zM392.996 360.778c1.8 0.563 3.6 0.388 5.4-0.559 1.717-0.9 2.792-2.273 3.348-4.119 0.473-1.884 0.13-3.949-1.159-6.301-1.202-2.318-2.659-3.775-4.416-4.293-1.716-0.556-3.438-0.388-5.103 0.428-1.807 0.99-2.965 2.447-3.562 4.377-0.564 1.975-0.214 4.028 0.984 6.308 1.203 2.184 2.661 3.648 4.507 4.159zM359.873 382.872c-1.586-0.945-5.401-2.144-10.168-3.264-7.892-1.8-13.549-3.82-17.029-6.048-3.471-2.228-6.088-5.020-7.933-8.366 0 0 17.588-4.715 39.464-13.982l3.735 9.695c-8.964 4.585-20.721 6.78-20.721 6.78 1.585 0.597 3.004 1.070 4.119 1.374 1.158 0.303 3.346 0.776 6.65 1.412 5.486 1.158 9.521 2.577 12.098 4.332 2.615 1.716 4.844 4.468 5.834 7.084 0.946 2.442 1.075 4.928 0.389 7.506-0.731 2.531-2.019 4.719-4.208 6.689-2.188 1.929-5.187 3.82-10.122 5.535-4.456 1.543-8.365 1.328-11.242 1.283-2.875-0.039-5.363-0.726-7.461-2.099-2.059-1.334-3.904-4.164-5.705-7.292 0 0 6.433-2.059 12.356-4.805 0 0 1.413 3.562 4.073 4.248 1.457 0.382 3.005 0.635 4.681 0.124 2.053-0.596 3.298-1.716 3.984-3.043 0.686-1.328 0.809-2.656 0.298-3.95-0.476-1.237-1.5-2.312-3.091-3.213zM214.835 364.514c-6.774 0.77-13.638 1.153-20.631 1.153-98.537 0-178.453-79.872-178.453-178.452s79.917-178.452 178.452-178.452c81.719 0 150.613 54.903 171.807 129.851 4.378 15.445 6.696 31.744 6.696 48.601-0.001 91.591-68.983 167.048-157.87 177.298zM223.971 198.158c-8.232-4.897-17.419-8.885-27.282-11.714-51.516-14.887-103.121 7.033-115.268 48.949-12.136 41.946 19.822 88.019 71.343 102.907 17.543 5.059 35.093 5.88 51.088 3.089 31.018-5.401 56.196-24.362 64.225-52.038 9.772-33.887-9.228-70.522-44.106-91.193zM227.274 303.124c-4.034 5.103-8.62 8.451-13.807 10.038-4.72 1.463-10.431 1.542-17.166 0.258-0.686-0.085-1.373-0.215-2.054-0.388-6.308-1.419-11.37-3.647-15.056-6.69-3.735-3.043-6.308-6.904-7.815-11.625-1.458-4.674-1.62-9.524-0.512-14.588 1.632-7.422 5.317-13.037 11.113-16.812 4.636-3.095 9.655-4.418 15.017-3.99 1.283 0.045 2.571 0.209 3.86 0.513 3.477 0.77 6.436 2.059 8.839 3.866 2.397 1.795 4.585 4.287 6.515 7.461 1.119-8.366 1.294-13.942 0.433-16.773-1.119-3.821-3.393-6.138-6.78-6.909-1.929-0.381-3.691-0.169-5.232 0.772-1.591 0.9-3.004 2.792-4.208 5.62l-2.099-0.772-18.359-6.514c2.143-3.774 4.675-6.785 7.59-8.969 2.92-2.19 6.308-3.607 10.083-4.203 1.975-0.349 4.293-0.388 6.864-0.175 2.403 0.175 5.019 0.559 7.933 1.204 10.257 2.268 17.594 7.246 21.966 14.927 4.377 7.675 5.019 18.359 1.975 32.133-2.059 9.353-5.102 16.559-9.097 21.617zM210.502 279.144c-1.458-2.616-3.685-4.248-6.695-4.889-2.87-0.641-5.487-0.039-7.934 1.756-0.472 0.349-0.894 0.731-1.283 1.204-1.716 1.845-2.959 4.506-3.736 7.933-0.939 4.207-0.731 7.596 0.647 10.128 0.815 1.412 1.8 2.531 3.044 3.341 0.945 0.647 2.014 1.075 3.257 1.378 2.965 0.642 5.75 0.039 8.367-1.852 2.577-1.884 4.332-4.884 5.232-9.002 0.906-4.035 0.608-7.382-0.899-9.998zM169.453 258.466l-9.571-2.096-10.335 46.754-18.448-4.073-28.398-54.306 3.82-17.42 38.569 8.541 3.128-14.246 18.444 4.074-3.133 14.246 9.571 2.099-3.646 16.429zM121.059 247.744l15.101 28.487 5.278-23.981-20.379-4.506zM345.249 439.238c-42.416 0-80.722-17.486-108.168-45.591-3.251-3.505-2.351-6.853 2.707-8.091 0.107-0.022 0.147-0.045 0.231-0.079 1.047-0.236 2.087-0.46 3.128-0.72 0.045 0 0.090-0.045 0.135-0.045 21.791-5.401 42.209-14.28 60.608-26.073 0.045-0.051 0.136-0.090 0.219-0.135 4.843-2.831 6.901-0.255 6.353 4.418-0.053 0.303-0.091 0.601-0.175 0.9-1.546 8.625-0.861 17.38 2.526 25.616 11.197 27.452 47.623 38.474 81.335 24.705 33.68-13.813 51.904-47.227 40.713-74.639-9.7-23.682-38.096-35.132-67.355-29.004-3.899 0.906-10.932 0-6.087-7.332 22.864-32.908 36.25-72.844 36.25-115.948 0-8.754-0.558-17.342-1.631-25.786-0.084-0.473-0.13-0.99-0.175-1.464-0.642-8.536 4.85-12.913 13.514-8.49 51.353 24.067 86.873 76.274 86.873 136.719 0 83.438-67.613 151.040-151.001 151.040z" />
<glyph unicode="&#x45;" d="M184.782 348.485c-0.469-0.061-0.884-0.297-1.234-0.591-21.619-10.94-43.971-31.174-56.948-57.949-0.269-0.383-0.448-0.794-0.59-1.238-0.713-2.004-0.232-4.305 1.332-5.869 1.083-1.092 2.468-1.649 3.914-1.682 0 0 0.061 0.004 0.179 0 0.737 0.208 1.503 0.322 2.269 0.501 13.742 3.124 26.751 9.942 37.544 20.613 11.266 11.27 18.141 25.102 20.935 39.634 0.061 0.065 0.094 0.208 0.094 0.387 0.322 1.682-0.208 3.568-1.564 4.928-1.659 1.592-3.948 2.065-5.931 1.266zM48.477 366.060c0.497 0.208 1.002 0.411 1.385 0.619 0.061 0.061 0.085 0.089 0.085 0.089 27.077 13.156 47.572 36.009 58.308 57.954 0.851 2.033 0.501 4.448-1.209 6.105-1.324 1.324-3.189 1.882-4.896 1.588-0.175 0.004-0.293-0.061-0.472-0.118-14.48-2.797-28.279-9.762-39.488-20.971-11.029-11.025-17.937-24.474-20.882-38.574-0.085-0.086-0.085-0.261-0.085-0.436-0.326-1.743 0.179-3.54 1.531-4.896 1.564-1.564 3.805-2.040 5.723-1.36zM46.762 344.058c-0.733-0.265-1.474-0.591-2.208-0.852-0.089 0.029-0.089 0.029-0.146-0.032-0.265-0.208-0.591-0.416-0.888-0.709-1.12-1.12-1.65-2.594-1.65-3.947-0.061-0.179-0.028-0.269 0.029-0.269 0.146-0.855 0.326-1.621 0.594-2.358 3.503-12.361 10.024-23.888 19.754-33.622 9.645-9.636 21.204-16.067 33.504-19.521 0.501-0.269 1.002-0.472 1.531-0.529 1.8-0.326 3.719 0.179 5.104 1.564 0.289 0.293 0.501 0.619 0.708 0.884 0.053 0.057 0.029 0.146 0.029 0.146 0.297 0.648 0.562 1.389 0.794 2.094 15.074 40.432 48.721 71.606 82.489 83.963 0.44 0.085 0.879 0.232 1.238 0.411 0.651 0.297 1.206 0.619 1.71 1.181 1.36 1.292 1.857 3.096 1.588 4.834-0.057 0.293-0.085 0.505-0.204 0.794-0.057 0.24-0.090 0.444-0.179 0.647-3.479 11.917-9.905 23.122-19.375 32.592-9.437 9.437-20.67 15.893-32.587 19.375-0.171 0.061-0.411 0.118-0.652 0.175-0.26 0.094-0.497 0.151-0.757 0.24-1.743 0.204-3.543-0.297-4.871-1.625-0.53-0.529-0.884-1.063-1.181-1.71-0.179-0.354-0.326-0.794-0.412-1.238-12.27-33.792-43.469-67.471-83.962-82.488zM511.943 409.693c-0.028 0.973-0.146 1.914-0.293 2.892-1.625 16.662-8.761 32.824-21.501 45.564s-28.901 19.88-45.564 21.501c-0.973 0.146-1.918 0.265-2.888 0.297-0.59 0.053-1.242 0.053-1.828 0.053-8.085 0-16.138-2.973-22.356-8.969-0.827-0.879-1.683-1.796-2.566-2.798-0.057-0.057-0.118-0.114-0.146-0.151-10.765-11.469-29.166-31.402-52.288-57.062-21.383-23.676-115.044-130.619-195.786-222.805-59.457-67.887-111.957-127.816-123.37-140.642-0.114-0.175-0.232-0.293-0.383-0.443-0.236-0.294-0.473-0.587-0.737-0.855-0.085-0.086-0.175-0.176-0.265-0.265-0.146-0.208-0.326-0.388-0.473-0.529-3.274-3.271-7.193-5.544-11.355-6.814-4.187-1.238-8.639-1.499-12.944-0.681-0.090 0.037-0.179 0.065-0.293 0.065-4.488 0.827-9.262-0.477-12.711-3.926-4.509-4.513-5.401-11.295-2.595-16.691 0.204-0.439 0.44-0.912 0.766-1.356 5.278-9.286 11.917-17.989 19.819-25.896 7.901-7.901 16.601-14.536 25.891-19.818 0.444-0.326 0.913-0.559 1.356-0.762 5.393-2.803 12.178-1.919 16.691 2.595 3.454 3.449 4.749 8.227 3.922 12.707 0 0.122-0.029 0.208-0.061 0.298-0.823 4.301-0.563 8.756 0.676 12.943 1.271 4.158 3.543 8.085 6.818 11.355 0.146 0.146 0.326 0.321 0.529 0.473 0.090 0.089 0.179 0.175 0.269 0.269 0.265 0.261 0.558 0.497 0.855 0.733 0.147 0.15 0.265 0.269 0.44 0.383 12.826 11.416 72.75 63.908 140.646 123.364 92.186 80.746 199.121 174.411 222.801 195.79 25.659 23.122 45.592 41.523 57.065 52.289 0.032 0.032 0.090 0.089 0.15 0.15 1.002 0.884 1.915 1.739 2.799 2.562 5.99 6.223 8.967 14.271 8.967 22.356 0 0.586 0 1.234-0.057 1.824z" />
<glyph unicode="&#x46;" d="M455.745 241.244l-0.848-0.244-0.533-0.162h-0.080c-0.481-0.121-1.014-0.162-1.536-0.162-3.575 0-6.578 2.232-7.71 5.397-0.128 0.65-0.286 1.298-0.452 1.948-6.974 29.047-19.92 49.453-25.11 56.838-0.041 0.039-0.041 0.039-0.080 0.081-0.406 0.567-0.769 1.054-1.094 1.46-0.57 0.934-0.933 1.947-1.14 3.043 0.038 0.852 0.038 1.702 0.038 2.555-0.038 15.538-1.614 28.44-2.185 32.78-5.358 7.099-11.324 13.916-17.772 20.366-27.344 27.343-61.219 45.803-98.135 53.875-9.65-1.095-18.295-4.178-22.883-6.044 0 0-0.040 0-0.080-0.042-0.404-0.162-0.808-0.322-1.133-0.486-0.079-0.041-0.207-0.081-0.325-0.123-0.769-0.244-1.584-0.365-2.433-0.365-0.531 0-1.014 0.040-1.505 0.121-0.649 0.244-1.3 0.445-1.901 0.608-15.988 5.031-31.401 7.71-41.1 9.007-42.677-6.003-82.071-25.558-113.062-56.553-2.195-2.191-4.302-4.421-6.371-6.653 3.242 2.189 7.662 4.949 12.654 7.505 0.126 0.081 0.245 0.12 0.364 0.162 2.561 1.176 4.747 1.339 5.072-2.598v-0.039c0.403-5.803 1.26-16.837 2.963-33.511v-0.039c0.039-0.528 0.079-1.095 0.159-1.624v-0.202c-0.039-1.785-0.642-3.45-1.656-4.747-0.451-0.445-0.936-0.933-1.505-1.502-8.153-8.722-29.413-32.577-43.366-60.001-0.127-0.243-0.207-0.488-0.364-0.69-1.379-2.555-4.097-4.3-7.18-4.3-0.166 0-0.285 0-0.451 0.041-0.728 0.12-1.496 0.284-2.392 0.488-2.639 0.567-5.839 1.419-9.326 2.677-0.087 0.041-0.166 0.041-0.245 0.081-0.689 0.244-1.34 0.527-2.028 0.771-0.079 0-0.166 0.081-0.247 0.123-0.325 0.202-0.65 0.407-0.935 0.608 0-0.081 0-0.122-0.039-0.202-11.925-62.842 6.37-130.39 54.895-178.907 37.724-37.733 87.912-58.507 141.302-58.507 53.343 0 103.53 20.775 141.256 58.507 43.288 43.286 62.519 101.661 57.653 158.377 0.281 0.081 0.568 0.161 0.846 0.284zM220.166 81.156c-0.048-0.039-0.087-0.119-0.166-0.159-0.405-0.365-0.895-0.769-1.379-1.221-0.080-0.079-0.159-0.119-0.207-0.158-6.973-5.887-19.92-14.81-38.089-18.946-0.039 0-0.087 0-0.127-0.039-0.443-0.126-0.926-0.205-1.418-0.286-0.039-0.039-0.119-0.039-0.198-0.039-0.246-0.038-0.531-0.038-0.816-0.038-0.325 0-0.649 0-0.974 0.038-0.080 0.039-0.159 0.039-0.238 0.039-0.373 0.12-0.815 0.199-1.387 0.366-0.198 0.039-0.405 0.118-0.603 0.205-9.413 2.63-38.215 13.099-65.362 47.257-0.039 0.040-0.079 0.087-0.079 0.128-0.404 0.402-0.728 0.846-1.094 1.339-0.49 0.769-0.856 1.665-1.054 2.632-0.079 0.372-0.127 0.776-0.127 1.141-0.808 7.216-2.55 27.906 1.624 48.112 0.127 0.817 0.325 1.585 0.531 2.353 1.173 3.082 4.175 5.238 7.623 5.238 0.285 0 0.57 0 0.856-0.048 0.039 0 0.079 0 0.158-0.039 0.65-0.159 1.34-0.365 2.116-0.522 0 0 0.039 0 0.080-0.040 11.766-3.13 33.874-8.319 58.214-10.87 0.856-0.128 1.664-0.207 2.512-0.286 2.076-0.57 3.859-1.949 4.912-3.772 0.207-0.373 0.405-0.817 0.649-1.3 5.15-10.555 18.454-36.798 34.405-61.139 0.079-0.127 0.159-0.207 0.198-0.325 0.815-1.298 1.298-2.797 1.298-4.38 0.002-1.99-0.726-3.811-1.859-5.238zM246.655 235.443c-1.18 0.039-2.315 0.080-3.327 0.121h-0.039c-2.234 0.567-4.136 2.069-5.198 4.057-0.039 0.039-0.079 0.121-0.079 0.162-0.198 0.526-0.405 1.095-0.65 1.662-0.039 0.040-0.039 0.083-0.039 0.122-5.316 14.16-18.946 50.386-26.774 70.996-0.246 0.569-0.445 1.135-0.649 1.704 0 0.081 0 0.163-0.039 0.202-0.118 0.529-0.166 1.097-0.166 1.664 0 2.435 1.102 4.664 2.765 6.166 0.079 0.041 0.159 0.123 0.198 0.162 0.404 0.244 0.856 0.528 1.298 0.852 0.039 0.041 0.079 0.041 0.118 0.081 12.907 8.683 43.572 28.886 65.195 39.516 0.975 0.404 2.070 0.647 3.209 0.647 1.014 0 1.988-0.202 2.876-0.567 0.167-0.042 0.325-0.081 0.49-0.204 11.238-4.867 45.68-21.38 68.88-49.534 1.14-1.46 1.87-3.245 1.87-5.233 0-0.488-0.040-0.974-0.12-1.46-0.048-0.204-0.126-0.446-0.166-0.69-2.433-12.13-10.3-47.061-24.991-74.687 0 0-1.623 0.082-4.422 0.244-0.61 0.039-1.3 0.081-2.029 0.081-0.078 0.039-0.118 0.039-0.158 0.039-16.265 0.855-58.497 3.086-78.053 3.898zM419.477 153.086c-0.041-0.286-0.080-0.57-0.118-0.886-1.141-7.187-3.37-19.476-6.538-29.904-0.038-0.080-0.080-0.207-0.080-0.286-0.895-2.678-2.678-6.973-4.824-10.506-0.081-0.159-0.169-0.286-0.246-0.404-20.041-29.857-56.473-50.228-56.473-50.228-0.975 0.127-2.029 0.365-3.123 0.69-0.531 0.126-1.014 0.286-1.545 0.49-7.791 2.639-17.283 8.842-24.137 13.835-0.815 0.563-1.585 1.133-2.274 1.663-1.378 1.498-2.227 3.447-2.227 5.634 0 1.99 0.73 3.779 1.861 5.238 0 0 0.040 0 0.040 0.040 0.531 0.483 1.093 0.974 1.704 1.543 11.077 10.224 30.916 30.546 43 55.046 0 0.049 0.049 0.088 0.049 0.088 0.324 0.649 0.642 1.293 0.926 1.94 0 0.049 0.040 0.088 0.088 0.128 1.418 2.148 3.85 3.567 6.607 3.606h0.12c0.286-0.039 0.57-0.039 0.855-0.039h0.079c7.099-0.325 20.57 0.167 39.594 5.317 0.364 0.119 0.736 0.207 1.103 0.286 3.854 0.936 5.882 0.366 5.556-3.288zM425.965 393.823c-45.392 45.396-105.762 70.427-169.944 70.427-64.221 0-124.584-25.031-169.986-70.427-93.713-93.714-93.713-246.211 0-339.923 45.403-45.404 105.765-70.394 169.986-70.394 64.182 0 124.552 24.991 169.944 70.394 93.713 93.712 93.713 246.208 0 339.923zM406.509 73.358c-40.199-40.204-93.66-62.336-150.488-62.336-56.868 0-110.329 22.131-150.526 62.336-82.984 82.984-82.984 218.023 0 301.012 40.197 40.196 93.657 62.365 150.526 62.365 56.827 0 110.289-22.169 150.488-62.365 82.988-82.988 82.988-218.027 0-301.012z" />
<glyph unicode="&#x47;" d="M256.245 480c-80.39 0-145.578-65.184-145.578-145.578 0-80.395 65.188-145.582 145.578-145.582 80.395 0 145.582 65.188 145.582 145.582s-65.187 145.578-145.582 145.578zM221.183 173.497v-16.426c0.081-0.043 0.124-0.129 0.124-0.21 11.102-17.557 21.883-38.33 21.883-60.622v-62.428c0-23.957 1.954-46.421 13.056-65.812 11.101 19.391 13.063 41.854 13.063 65.812v62.428c0 22.292 10.773 43.065 21.875 60.622 0 0.081 0.047 0.167 0.133 0.21v16.426c-11.272-2.513-23.049-3.861-35.071-3.861-12.024 0-23.791 1.348-35.063 3.861z" />
<glyph unicode="&#x48;" d="M121.070 81.289c0 0.034-0.034 0.073-0.034 0.106-1.327 3.165-3.865 3.241-5.814 0.737l-0.034-0.032c-3.093-7.248-0.372-24.613-6.992-52.574-1.25-5.188-2.871-9.785-4.743-13.79-0.811-2.248-0.705-4.681 0.95-6.258 0.043-0.033 0.077-0.072 0.077-0.072 0.439-0.333 0.845-0.627 1.284-0.888 3.72-2.351 7.175-2.938 8.979-1.322 9.602 8.753 21.191 26.156 13.022 54.778-2.092 7.398-4.413 13.757-6.695 19.315zM382.668 202.060c2.76 2.138 5.188 4.231 5.48 7.181 0 0.222 0 0.434 0.039 0.661 0.367 6.509 0.883 17.327 1.25 27 0.11 3.052-2.39 3.566-3.422 0.438-2.056-6.070-4.748-13.351-8.352-22.475 0-0.077-0.068-0.15-0.111-0.223-0.66-1.359-1.354-2.76-2.094-4.188 0 0-1.693 0.251-4.010 0.072v-0.043c-0.59-0.106-1.105-0.223-1.655-0.252-0.149-0.043-0.333-0.076-0.517-0.11-4.676-0.994-10.301-4.271-10.629-13.983-0.994-29.428 14.527-24.463 14.527-24.463 0.184 0.223 0.366 0.439 0.588 0.661 0.111 0.149 0.256 0.289 0.405 0.482 1.101 1.506 1.435 3.231 1.065 7.024-0.037 0.033-0.037 0.106-0.037 0.185-0.111 0.811-0.219 1.692-0.328 2.614-1.174 11.51 3.681 16.919 7.801 19.419zM357.109 391.078c0.049 0 0.072-0.010 0.115-0.010 0.646 0.072 1.303 0.143 2.004 0.143 1.605 0 3.262-0.217 4.867-0.627 4.854-1.226 8.836-3.578 11.744-6.808 6.991 4.343 27.546 15.083 53.446 10.060 20.825-4.053 34.543-9.467 41.269-12.56 4.782 8.369 7.929 16.907 9.732 22.644-7.628 6.926-16.507 14.253-28.053 22.55-25.457 18.321-42.45 21.778-42.45 21.778l5.735-9.566-17.654 2.432 5.699-9.491c0.033-0.113 0.11-0.224 0.145-0.333 1.805-2.984 0.96-5.592-1.434-7.761-0.223-0.188-0.404-0.372-0.623-0.519-2.33-1.858-27.812-13.498-46.907-29.235-1.973-1.802-0.713-2.786 2.365-2.697zM504.915 379.565c-5.288 5.409-10.313 10.642-15.759 15.978-3.734-10.47-10.451-25.223-21.303-36.339 14.809-4.041 24.496-13.851 31.579-5.317 8.943 10.776 20.123 10.743 5.483 25.678zM251.823 326.579c0 0-0.232-4.492-3.030-12.186-1.708-4.625-4.352-10.434-8.439-17.085-0.569-1.18-1.148-2.321-1.737-3.428-0.020-0.080-0.048-0.123-0.078-0.169-4.091-8.162-6.012-11.966-7.011-16.021-1.167-4.666-0.54-7.013 5.723-7.23 6.258-0.217 34.214-2.89 37.938-2.716 2.418 0.147 4.869 2.376 4.383 4.605-0.266 1.226-1.409 2.48-3.934 3.358-7.142 2.511-15.349 4.26-18.113 6.745 0 0 1.478 5.144 8.699 17.071 0.754 1.221 1.588 2.569 2.485 3.966 2.383 3.949 6.2 10.277 9.8 16.369 3.879 6.572 7.483 12.817 8.797 15.624 2.459 5.281 3.863 13.191-1.478 16.434-7.558 4.604-17.583 3.433-24.371 3.499 10.76 9.387 27.41 15.015 27.41 15.015 7.952-14.007 6.915-14.948 17.81-24.171 3.508-2.96 12.699-1.073 21.79 1.966 11.3 3.785 22.451 9.264 22.451 9.264 5.78 2.692 1.892 0.301 10.46 1.942 8.536 1.595 9.096 6.992 8.854 10.174-0.010 0.374-0.054 0.745-0.097 1.109-0.502 3.696-2.407 7.571-8.733 9.166-6.98 1.795-8.309-5.088-13.877-6.828 0 0-2.688-0.623-6.537-1.428-7.025-1.491-17.867-3.551-23.311-3.462 0 0-5.144 7.879-7.141 14.446-3.252 10.776-5.676 10.132-4.126 12.017 2.707 3.3 8.7 0.162 11.416-0.9 8.56-3.329 13.506 1.098 20.271 17.558 6.52 15.846 6.707 22.251-0.521 32.605-7.203 10.405-24.236 13.242-35.941-1.472-2.899-3.607-5.853-10.277-6.456-14.586-1.148-5.597-5.703-8.398-11.662-9.208-0.105-0.019-0.261-0.014-0.36-0.041-15.334-2.212-82.315-18.627-90.644-62.125-1.559-8.208 0.613-16.958 9.023-25.138 12.42-12.058 50.287-4.739 50.287-4.739zM176.446 298.949c2.35-5.308 16.241-25.797 40.019-23.426 1.698 0.386 3.455 1.459 4.203 4.19 0.053 0.222 0.101 0.439 0.145 0.608 1.25 5.088 3.334 9.308 7.421 17.457l0.034 0.143 0.599 1.126c0.019 0.039 0.048 0.080 0.067 0.123l0.066 0.138 0.020 0.026c0.468 0.897 0.941 1.821 1.399 2.777l0.241 0.5 0.294 0.473c1.076 1.754 2.075 3.498 2.992 5.228 1.829 3.291 0.164 5.177-2.485 5.078l0.024 0.015c-1.114-0.034-2.239-0.063-3.382-0.063-4.55 0-8.67 0.297-12.463 0.83-4.328 1.23-32.82-8.811-38.282-11.573-2.316-1.17-0.941-3.655-0.941-3.655l0.029 0.005zM288.016 314.246c-3.623-6.127-7.465-12.489-9.848-16.453l-0.164-0.256c-0.859-1.344-1.66-2.644-2.336-3.732-0.4-0.661-0.752-1.264-1.113-1.877-1.14-1.995-0.136-4.164 2.281-4.979 0.121-0.041 0.184-0.080 0.241-0.113 0.733-0.244 1.462-0.446 2.19-0.707 0.153-0.051 0.279-0.118 0.424-0.174v0.015c1.844-0.779 3.514-1.259 5.545 0.42 9.313 9.833 13.949 22.738 14.074 39.756 0 0.048-0.015 0.077-0.015 0.137 0 3.221-1.987 4.536-3.58 1.409v0.004c-1.591-2.965-4.031-7.23-7.699-13.45zM380.738 373.811c0.111-0.533 0.261-1.047 0.332-1.604l0.023-0.159 0.010-0.123c0.072-0.584 0.127-1.166 0.15-1.754 0.729-11.126-6.085-19.39-17.795-21.583-1.091-0.208-2.057-0.359-2.973-0.49-0.016-0.005-0.021-0.010-0.038-0.010-3.007-0.504-4.772-0.562-8.063-2.113-4.353-2.007-12.285-5.496-20.42-8.217-6.865-2.297-12.482-3.532-17.201-3.875 0.246-0.010 0.4-0.020 0.4-0.020-2.909-0.128-4.95-1.066-4.83-4.975 0.010-0.352-0.020-0.569-0.063-0.736 0.266-20.776-5.153-36.682-16.633-48.945l0.135-0.138c-1.838-2.297-3.31-4.856-3.185-8.711 0.015-0.572-0.067-0.905-0.207-1.091-0.405-2.19-1.272-4.309-2.683-6.166-2.805-3.706-7.219-6.092-12-6.389-0.256-0.009-0.564-0.021-0.928-0.021-2.985 0-10.088 0.569-21.433 1.503-6.875 0.562-13.978 1.146-16.473 1.235-1.433 0.050-4.632 0.203-7.913 1.597-0.077 0.019-0.106 0.004-0.198 0.034-3.715 1.16-5.998 1.867-8.555 1.665l0.058 0.051c-19.875-1.262-41.896 5.715-55.797 32.603-1.949-0.567-3.875-1.11-5.727-1.604-66.214-17.659-68.052-53.929-94.658-62.211-18.866-5.881-35.97-12.984-36.492-56.427-0.614-53.38-27.581-71.411-27.581-71.411 65.447 9.157 63.686 73.581 68.834 103.786 1.688 9.931 10.89 12.096 10.258 4.738-0.623-7.354-3.382-17.177 3.537-34.654 6.876-17.471 18.393-19.752 17.916-39.102-0.439-18.653-19.426-25.718-23.985-33.659v-0.039c-0.149-0.261-0.294-0.516-0.405-0.771-3.682-8.28 0.956-40.468 0.956-56.545 0-16.11-6.475-20.231-11.99-18.397-5.52 1.843-11.040 3.203-13.356-3.232-5.481-15.344 2.794-31.71 8.792-30.35 10.412 2.388 24.83 9.234 33.442 27.661 1.877 4.010 3.493 8.536 4.709 13.729 0.072 0.365 0.184 0.732 0.256 1.101 2.132 9.196 3.237 17.215 3.898 24.096 1.366 14.312 0.733 23.657 3.199 28.141 0.772 1.438 3.643 3.715 7.879 6.591 15.411 10.591 48.776 29.539 63.271 46.755 19.387 22.996 10.668 69.823-18.282 78.542 0 0 33.327-1.51 37.158-38.88 0.034 0 3.86 3.383 13.611 6.948 30.055 11.039 71.106 9.196 115.877 29.428 38.663 17.443 53.269 26.231 64.235 31.602 0.217 0.114 0.405 0.184 0.623 0.297 0.916 0.439 1.766 0.844 2.647 1.25 0.039 0 0.039 0 0.073 0.034 3.054 1.257 5.52 1.068 5.848-3.933 0.262-9.273 0.111-20.164-2.167-41.862-0.149-1.399-0.299-2.871-0.481-4.386 0-0.106-0.033-0.184-0.072-0.25-0.256-1.473-0.555-3.021-0.916-4.6 0 0-1.699-0.188-3.865-0.994h-0.034c-0.222-0.11-0.442-0.222-0.661-0.333-0.26-0.145-0.555-0.261-0.854-0.366-0.141-0.077-0.29-0.184-0.473-0.223-3.645-1.871-7.547-5.559-7.143-12.506 0.044-1.179 0.229-2.428 0.555-3.754 1.84-7.875 4.232-12.945 6.697-16.115 6.51-8.387 13.719-3.717 13.719-3.717 12.949 25.68 23.69 78.325 22.073 119.856-0.038 1.182-0.072 2.357-0.145 3.498 0 0.367-0.11 0.772-0.149 1.103-0.917 4.818-9.708 9.457-13.539 8.902-0.289-0.039-14.895-2.133-24.458-3.863-8.317-1.433-6.329 6.659-5.19 11.773 0.666 2.203 1.615 4.634 2.683 7.175 21.341 48.814 40.322 53.963 40.322 53.963 5.081 1.166 10.061-1.985 27.643-1.472 4.507 3.008 8.425 6.921 11.803 11.254-6.558 2.871-18.958 7.515-37.162 11.054-23.583 4.578-42.261-6.441-46.449-9.189z" />
<glyph unicode="&#x49;" d="M377.919 120.945c0.286 0.064 0.532 0.147 0.763 0.263 0.394 0.171 0.731 0.386 1.041 0.703 0.818 0.815 1.129 1.912 0.985 2.957-0.056 0.171-0.083 0.302-0.143 0.477-0.024 0.144-0.056 0.278-0.107 0.397-2.118 7.236-6.028 14.088-11.774 19.834-5.755 5.746-12.598 9.66-19.838 11.771-0.111 0.060-0.255 0.088-0.394 0.115-0.167 0.056-0.306 0.080-0.481 0.144-1.041 0.135-2.138-0.167-2.956-0.985-0.31-0.311-0.532-0.648-0.703-1.042-0.115-0.23-0.195-0.484-0.251-0.763-7.463-20.541-26.45-41.051-51.076-50.179-0.449-0.163-0.902-0.338-1.352-0.505-0.060 0-0.060 0-0.092-0.027-0.166-0.107-0.357-0.247-0.532-0.422-0.676-0.675-1.009-1.577-1.009-2.42-0.032-0.083-0.032-0.143 0.023-0.143 0.087-0.537 0.198-0.981 0.365-1.438 2.114-7.523 6.088-14.541 12.002-20.454 5.861-5.861 12.907-9.776 20.378-11.886 0.302-0.159 0.62-0.271 0.945-0.307 1.102-0.202 2.258 0.107 3.101 0.954 0.166 0.171 0.317 0.361 0.425 0.532 0.027 0.024 0.027 0.088 0.027 0.088 0.175 0.394 0.342 0.847 0.481 1.268 9.156 24.591 29.635 43.55 50.172 51.068zM376.934 107.343c-0.278-0.056-0.533-0.198-0.76-0.365-13.126-6.652-26.732-18.956-34.62-35.241-0.171-0.227-0.282-0.504-0.37-0.763-0.425-1.208-0.135-2.619 0.818-3.572 0.645-0.656 1.494-0.994 2.369-1.018h0.107c0.452 0.115 0.926 0.194 1.387 0.313 8.361 1.888 16.277 6.025 22.842 12.534 6.852 6.839 11.044 15.268 12.732 24.114 0.032 0.023 0.056 0.115 0.056 0.222 0.199 1.042-0.135 2.17-0.949 2.989-0.99 0.986-2.404 1.268-3.612 0.787zM294.025 118.025c0.31 0.135 0.592 0.254 0.842 0.393 0.028 0.028 0.060 0.048 0.060 0.048 16.452 8.004 28.931 21.893 35.472 35.253 0.509 1.231 0.274 2.706-0.739 3.716-0.811 0.818-1.947 1.156-2.98 0.962-0.115 0-0.198-0.036-0.286-0.064-8.814-1.721-17.207-5.948-24.030-12.756-6.704-6.708-10.9-14.906-12.704-23.47-0.056-0.060-0.056-0.167-0.056-0.282-0.199-1.041 0.111-2.143 0.93-2.957 0.951-0.954 2.311-1.245 3.491-0.843zM114.638 246.073c53.139 0 96.375 43.232 96.375 96.372 0 53.144-43.236 96.375-96.375 96.375-53.135 0-96.368-43.232-96.368-96.375 0.001-53.14 43.233-96.372 96.368-96.372zM114.638 266.419c-20.45 0-39.012 8.158-52.687 21.348 8.488-1.804 16.75-2.591 24.535-2.591 20.736 0 38.206 5.178 48.569 9.148 2.25-6.839 3.982-14.66 4.88-23.486-7.923-2.809-16.419-4.419-25.297-4.419zM159.090 280.896c-5.865 36.341-24.261 57.24-33.42 65.585 1.081 4.666 3.417 12.264 8.484 21.169 12.784-10.634 37.136-35.686 39.262-73.362-4.164-5.070-9.008-9.537-14.326-13.392zM164.002 400.154c16.293-13.96 26.665-34.633 26.665-57.709 0-6.287-0.851-12.367-2.301-18.212-9.839 30.198-30.373 50.318-42.239 59.938 4.801 5.372 10.694 10.789 17.875 15.983zM126.91 417.389c6.573-1.073 12.868-2.957 18.761-5.607-28.537-23.219-37.398-49.674-40.061-61.818-4.61-1.418-12.363-3.175-22.56-3.243 2.809 16.372 12.315 49.987 43.86 70.668zM93.58 415.441c-21.272-23.649-28.425-51.534-30.826-66.619-7.058 1.478-14.703 3.89-22.802 7.526 5.262 28.351 26.284 51.189 53.628 59.093zM39.006 334.711c16.325-6.235 31.084-8.301 43.332-8.301 13.567 0 24.074 2.476 30.305 4.455 3.525-3.282 8.926-9.12 14.084-17.91-15.586-5.75-49.444-14.326-83.127 2.643-2.297 6.055-3.918 12.437-4.594 19.113zM52.852 173.644c-19.266-3.35-34.395-10.276-45.597-31.394-23.74-44.763 14.918-88.849 56.287-105.126 0.97-0.386 1.939-0.688 2.909-1.050-25.275 55.421-18.543 112.527-13.599 137.57zM510.151 415.878c-5.425 10.173-30.857 45.132-43.407 59.037-5.469 6.061-13.901 7.463-21.364 0-7.459-7.463-104.446-110.208-154.633-159.72s-96.305-110.547-157.344-128.858c-22.31-6.696-41.98-8.405-59.132-10.066-4.188-18.264-16.532-87.228 18.606-146.947 30.532-4.372 57.908 3.521 71.721 20.688 7.666 9.526 258.758 317.12 270.951 331.955 12.78 15.554 27.806 22.381 50.866 14.942 23.061-7.445 29.16 8.797 23.736 18.969z" />
<glyph unicode="&#x4a;" d="M190.715 181.84c2.907 0 5.267 2.359 5.267 5.252 0 2.907-2.359 5.252-5.267 5.252h-82.182c-2.892 0-5.252-2.345-5.252-5.252v-102.423h-19.506c-2.892 0-5.251-2.36-5.251-5.252 0-2.907 2.359-5.251 5.251-5.251h282.166c2.908 0 5.253 2.344 5.253 5.251 0 2.892-2.345 5.252-5.253 5.252h-29.259v102.423c0 2.907-2.359 5.252-5.267 5.252h-19.882c-2.891 0-5.251-2.345-5.251-5.252 0-2.893 2.36-5.252 5.251-5.252h14.631v-97.171h-212.38v97.171h76.931zM449.548 427.902c-20.022 20.022-46.657 31.056-74.962 31.056-28.338 0-54.955-11.034-74.992-31.056-18.21-18.209-28.385-41.45-30.542-65.286-23.367-100.625-89.715-243.813-89.715-243.813s89.529 166.709 98.062 189.107c0.173 0.484 0.344 1.001 0.501 1.5 2.734-6.080 6.063-11.941 9.987-17.505l-55.799-109.41c12.566 19.757 49.609 73.835 65.739 97.312 0.594-0.625 1.156-1.25 1.767-1.859 5.017-5.018 10.439-9.473 16.208-13.317l-48.905-61.77 59.955 55.345c7.815-3.938 16.085-6.892 24.664-8.783-3.705-3.033-9.94-8.018-18.178-14.192-66.459-49.892-111.754-101.97-111.754-101.97s81.885 75.117 177.556 116.505c18.928 4.471 36.309 14.083 50.408 28.181 41.34 41.343 41.34 108.614 0 149.955zM436.901 290.608c-16.646-16.646-38.777-25.82-62.315-25.82-23.554 0-45.687 9.175-62.332 25.82-21.397 21.397-29.478 51.188-24.211 78.915 0.016 0.032 0.016 0.047 0.016 0.095 0.124-0.095 0.265-0.188 0.406-0.281 0.031-0.017 0.079-0.047 0.109-0.047 0.313-0.11 0.595-0.235 0.906-0.344 0.032-0.015 0.063-0.015 0.095-0.032 1.546-0.562 2.953-0.937 4.125-1.188 0.391-0.078 0.735-0.156 1.048-0.218 0.078-0.017 0.125-0.017 0.203-0.017 1.36 0 2.547 0.783 3.157 1.908 0.079 0.078 0.109 0.187 0.173 0.296 6.158 12.098 15.519 22.632 19.131 26.478 0.249 0.25 0.766 0.469 0.969 0.656 0.454 0.579 1.031 1.314 1.031 2.095v0.829c-2.627 7.346-2.627 12.223-2.627 14.77v0.016c0 1.751-0.78 1.673-1.906 1.156-0.063-0.031 0.048-0.031-0.016-0.078-2.188-1.125-4.064-2.344-5.501-3.314 0.923 0.985 1.891 1.969 2.845 2.939 13.675 13.676 31.072 22.303 49.906 24.944 4.268-0.562 11.081-1.75 18.131-3.969 0.266-0.079 0.563-0.157 0.843-0.266 0.221-0.032 0.438-0.063 0.673-0.063 0.375 0 0.734 0.063 1.078 0.171 0.047 0.015 0.109 0.032 0.142 0.047 0.14 0.078 0.312 0.14 0.5 0.218 0.016 0.015 0.031 0.015 0.031 0.015 2.031 0.83 5.83 2.189 10.098 2.674 16.286-3.564 31.229-11.708 43.293-23.773 2.845-2.845 5.471-5.846 7.832-8.988 0.249-1.907 0.953-7.596 0.969-14.458 0-0.375 0-0.75-0.016-1.125 0.094-0.484 0.249-0.923 0.5-1.345 0.14-0.172 0.296-0.391 0.483-0.64 0.016-0.017 0.016-0.017 0.033-0.032 2.297-3.251 8.003-12.253 11.081-25.070 0.077-0.297 0.141-0.579 0.203-0.86 0.483-1.406 1.813-2.361 3.392-2.361 0.233 0 0.47 0.079 0.688 0.079h0.031l0.234 0.063 0.375 0.094c-0.124-0.063-0.249-0.094-0.375-0.125 2.141-25.021-6.33-50.78-25.431-69.864zM462.769 360.63c0.063 0.017 0.11 0.032 0.142 0.047v-0.016l-0.142-0.031zM444.249 323.149c-0.157-0.030-0.313 0.11-0.469 0.063-8.395-2.281-14.35-2.156-17.476-2.156h-0.469c-1.22 0-2.281-0.829-2.906-1.766-0.032-0.032-0.048-0.125-0.048-0.157-0.124-0.281-0.265-0.609-0.406-0.891 0 0-0.015-0.047-0.015-0.063-5.331-10.801-14.1-19.788-18.977-24.289-0.265-0.265-0.514-0.469-0.75-0.688 0-0.016-0.015-0.031-0.015-0.031-0.499-0.642-0.828-1.423-0.828-2.298 0-0.968 0.375-1.829 0.984-2.485 0.298-0.249 0.642-0.484 1-0.733 3.033-2.205 7.221-4.939 10.659-6.112 0.22-0.094 0.438-0.157 0.673-0.219 0.484-0.141 0.953-0.25 1.375-0.297 0 0 16.067 8.987 24.915 22.147 0.030 0.063 0.062 0.11 0.109 0.188 0.937 1.547 1.733 3.455 2.125 4.626 0 0.047 0.016 0.094 0.048 0.125 1.39 4.611 2.376 10.020 2.875 13.191 0.015 0.141 0.030 0.266 0.048 0.392 0.142 1.626-0.748 1.877-2.452 1.453zM404.97 356.302c0.329 0 0.626-0.032 0.892-0.048 1.234-0.062 1.954-0.109 1.954-0.109 6.486 12.192 9.956 27.603 11.018 32.949 0.033 0.109 0.063 0.218 0.079 0.312 0.031 0.218 0.063 0.421 0.063 0.641 0 0.875-0.327 1.672-0.828 2.313-10.238 12.409-25.43 19.694-30.385 21.85-0.077 0.047-0.157 0.063-0.22 0.095-0.39 0.156-0.827 0.234-1.266 0.234-0.501 0-0.984-0.094-1.421-0.281-9.535-4.689-23.071-13.598-28.76-17.428-0.016-0.016-0.031-0.016-0.046-0.031-0.203-0.141-0.393-0.266-0.58-0.375-0.016-0.016-0.063-0.062-0.093-0.078-0.735-0.655-1.204-1.641-1.204-2.72 0-0.249 0.016-0.5 0.063-0.735 0.016-0.015 0.016-0.046 0.016-0.093 0.095-0.25 0.188-0.5 0.298-0.75 3.438-9.081 9.455-25.070 11.8-31.307 0-0.031 0-0.047 0.017-0.062 0.108-0.25 0.203-0.5 0.296-0.735 0-0.016 0.016-0.188 0.031-0.203 0.469-0.876 1.313-1.922 2.298-1.922h0.016c0.438 0 0.938 0.093 1.47 0.078 8.627-0.359 27.241-1.267 34.432-1.642 0.013-0.001 0.029 0.062 0.060 0.047zM358.939 294.359c-7.032 10.739-12.895 22.32-15.176 26.961-0.095 0.22-0.188 0.423-0.281 0.579-0.469 0.797-1.25 1.422-2.172 1.673-0.376 0.030-0.72 0.063-1.096 0.124-10.738 1.125-20.507 3.408-25.695 4.783-0.016 0.031-0.031 0.031-0.031 0.031-0.343 0.063-0.641 0.157-0.922 0.22-0.047 0.015-0.063 0.015-0.078 0.015-0.125 0.031-0.25 0.031-0.375 0.031-1.516 0-2.845-0.953-3.36-2.313-0.095-0.344-0.188-0.672-0.234-1.031-1.845-8.924-1.078-18.053-0.719-21.226 0-0.171 0.016-0.344 0.047-0.5 0.094-0.437 0.265-0.828 0.468-1.171 0.173-0.219 0.313-0.407 0.485-0.595 0-0.015 0.016-0.031 0.031-0.047 11.972-15.068 24.679-19.677 28.838-20.85 0.093-0.031 0.171-0.078 0.266-0.093 0.249-0.063 0.452-0.11 0.609-0.156 0.031 0 0.078 0 0.108-0.017 0.142-0.015 0.281-0.015 0.438-0.015 0.124 0 0.233 0 0.344 0.015 0.046 0 0.077 0 0.093 0.017 0.22 0.031 0.439 0.078 0.626 0.124 0.017 0.017 0.031 0.017 0.063 0.017 8.018 1.829 13.724 5.767 16.803 8.362 0.015 0.015 0.046 0.031 0.078 0.078 0.219 0.188 0.437 0.359 0.609 0.532 0.046 0.015 0.063 0.047 0.078 0.062 0.5 0.641 0.828 1.438 0.828 2.313 0 0.703-0.218 1.36-0.577 1.938-0.017 0.046-0.048 0.093-0.096 0.139zM403.657 217.679c-5.080 0-10.691-4.11-10.691-9.189v-164.724c0-9.378-5.454-19.506-14.254-19.506h-303.94c-9.3 0-19.506 10.205-19.506 19.506v303.173c0 8.799 10.128 14.254 19.506 14.254h163.974c5.080 0 9.206 6.377 9.206 11.441 0 5.080-4.126 11.457-9.206 11.457h-169.209c-18.631 0-37.903-12.222-37.903-32.651v-312.176c0-19.476 18.412-37.888 37.903-37.888h312.927c20.427 0 32.634 19.256 32.634 37.887v169.226c0 5.079-6.361 9.19-11.441 9.19z" />
<glyph unicode="&#x4b;" d="M369.18 337.341h-228.26v-228.905h228.26v228.905zM407.732 414.9v-0.992h-342.632v-381.94h380.793v382.932h-38.161zM407.732 68.935h-305.57v307.954h305.57v-307.954z" />
<glyph unicode="&#x4c;" d="M377.919 120.945c0.286 0.064 0.532 0.147 0.763 0.263 0.394 0.171 0.731 0.386 1.041 0.703 0.818 0.815 1.129 1.911 0.985 2.957-0.055 0.171-0.083 0.302-0.143 0.477-0.024 0.144-0.055 0.278-0.107 0.397-2.118 7.236-6.028 14.089-11.774 19.834-5.755 5.746-12.598 9.66-19.838 11.771-0.111 0.060-0.255 0.089-0.394 0.115-0.167 0.055-0.306 0.080-0.481 0.144-1.041 0.135-2.138-0.167-2.956-0.985-0.31-0.311-0.532-0.647-0.703-1.042-0.115-0.23-0.195-0.484-0.251-0.763-7.463-20.541-26.45-41.051-51.076-50.179-0.449-0.163-0.902-0.338-1.351-0.505-0.060 0-0.060 0-0.092-0.027-0.166-0.107-0.357-0.247-0.532-0.422-0.676-0.675-1.009-1.577-1.009-2.42-0.032-0.083-0.032-0.143 0.023-0.143 0.087-0.537 0.198-0.981 0.365-1.438 2.114-7.523 6.087-14.541 12.002-20.454 5.861-5.861 12.907-9.776 20.378-11.886 0.302-0.159 0.62-0.271 0.945-0.307 1.102-0.202 2.258 0.107 3.101 0.954 0.166 0.171 0.317 0.361 0.425 0.532 0.027 0.024 0.027 0.087 0.027 0.087 0.175 0.394 0.342 0.847 0.481 1.268 9.156 24.591 29.635 43.55 50.172 51.068zM376.934 107.343c-0.278-0.057-0.533-0.198-0.76-0.365-13.126-6.652-26.732-18.956-34.62-35.241-0.171-0.227-0.282-0.505-0.37-0.763-0.425-1.209-0.135-2.619 0.818-3.572 0.645-0.656 1.494-0.994 2.369-1.018h0.107c0.452 0.115 0.926 0.194 1.387 0.313 8.361 1.888 16.277 6.025 22.842 12.534 6.852 6.839 11.044 15.268 12.732 24.114 0.032 0.023 0.055 0.115 0.055 0.222 0.199 1.042-0.135 2.17-0.949 2.989-0.99 0.986-2.404 1.268-3.612 0.787zM294.025 118.025c0.31 0.135 0.592 0.254 0.842 0.393 0.028 0.028 0.060 0.048 0.060 0.048 16.452 8.004 28.931 21.893 35.472 35.253 0.509 1.231 0.274 2.706-0.739 3.716-0.811 0.818-1.947 1.156-2.98 0.962-0.115 0-0.198-0.036-0.286-0.064-8.814-1.721-17.207-5.948-24.030-12.756-6.704-6.708-10.9-14.906-12.704-23.47-0.055-0.060-0.055-0.167-0.055-0.282-0.199-1.041 0.111-2.143 0.93-2.957 0.951-0.954 2.311-1.245 3.491-0.843zM52.852 173.644c-19.266-3.35-34.395-10.276-45.597-31.394-23.74-44.763 14.918-88.849 56.287-105.126 0.97-0.386 1.939-0.688 2.909-1.050-25.275 55.421-18.543 112.527-13.599 137.57zM510.151 415.878c-5.425 10.173-30.857 45.132-43.407 59.037-5.469 6.061-13.901 7.463-21.364 0-7.459-7.463-104.446-110.208-154.633-159.72s-96.305-110.547-157.344-128.858c-22.31-6.697-41.98-8.405-59.132-10.066-4.188-18.264-16.532-87.228 18.606-146.947 30.532-4.372 57.908 3.521 71.721 20.688 7.666 9.526 258.758 317.12 270.951 331.955 12.78 15.554 27.806 22.381 50.866 14.942 23.061-7.445 29.159 8.797 23.736 18.969z" />
<glyph unicode="&#x4d;" d="M455.655 280.134c-3.128 3.12-8.239 3.12-11.367 0l-17.941-17.942-29.486 47.176 12.953 16.607c4.204 5.401 4.404 12.647-0.569 17.62l-33.649 33.65c-4.974 4.973-12.223 4.773-17.62 0.569l-16.607-12.953-47.176 29.486 17.938 17.941c3.129 3.128 3.129 8.239 0 11.371l-31.974 31.97c-3.125 3.125-8.239 3.125-11.367 0l-57.55-57.554c-3.128-3.125-3.128-8.239 0-11.367l31.97-31.974c3.128-3.124 8.247-3.124 11.371 0l18.024 18.028 25.996-41.269-41.971-32.747c-15.206-11.854-31.213-16.427-50.25-8.129-0.090 0.031-0.114 0.059-0.2 0.086l-14.013 6.167c-7.76 3.438-15.975 3.634-24.269-4.659l-28.426-28.422c-7.583-7.587-12.074-13.275-12.074-27.028v-46.156c0-2.811-0.231-5.373-0.62-7.787l-41.698 26.578 18.158 18.157c3.125 3.128 3.125 8.239 0 11.371l-31.974 31.97c-3.128 3.125-8.243 3.125-11.367 0l-57.554-57.554c-3.125-3.124-3.125-8.239 0-11.367l31.974-31.974c3.128-3.125 8.239-3.125 11.367 0l18.162 18.161 29.466-46.234 5.437 3.466c-5.998-4.792-12.564-7.352-21.090-4.525l-10.087 3.38c-0.2 0.090-0.4 0.117-0.601 0.204-9.491 2.955-16.254 0.737-23.9-6.908l-21.541-21.541c-7.336-7.332-9.468-13.271-0.942-21.797l105.618-105.618c8.525-8.525 14.46-6.39 21.796 0.942l21.545 21.541c7.643 7.646 9.856 14.409 6.904 23.904-0.086 0.196-0.114 0.396-0.2 0.593l-3.379 10.091c-2.826 8.525-0.271 15.093 4.522 21.094l-3.466-5.44 46.234-29.47-18.162-18.157c-3.125-3.129-3.125-8.239 0-11.367l31.974-31.975c3.128-3.128 8.243-3.128 11.367 0l57.554 57.555c3.128 3.124 3.128 8.242 0 11.367l-31.971 31.97c-3.132 3.129-8.242 3.129-11.371 0l-18.153-18.153-26.581 41.7c2.414 0.385 4.977 0.616 7.792 0.616h46.152c13.753 0 19.437 4.49 27.028 12.078l28.418 28.422c8.302 8.293 8.102 16.509 4.663 24.265l-6.167 14.017c-0.027 0.087-0.055 0.114-0.082 0.196-8.302 19.041-3.729 35.048 8.125 50.25l0.027 0.031 32.724 41.944 41.265-25.992-18.027-18.028c-3.125-3.128-3.125-8.242 0-11.371l31.974-31.974c3.128-3.124 8.243-3.124 11.367 0l57.554 57.554c3.129 3.128 3.129 8.243 0 11.371l-31.977 31.973zM115.543 161.701l-9.632-9.633-26.821 42.081 41.556-26.494c-1.468-2.052-3.168-4.019-5.103-5.954zM226.153 47.087l-42.085 26.824 9.632 9.633c1.935 1.938 3.902 3.639 5.955 5.103l26.498-41.56zM267.395 192.026l-41.579-41.579c-3.124-3.124-8.243-3.124-11.367 0l-32.001 32.002c-3.128 3.124-3.128 8.242 0 11.367l41.579 41.579c11.964 11.964 31.377 11.937 43.341-0.023 11.963-11.968 11.99-31.382 0.027-43.346zM311.34 341.44l-24.135 38.313 40.668-25.419-16.533-12.894zM373.436 279.341l12.898 16.537 25.419-40.668-38.317 24.131zM511.105 323.985c-0.055 0.228-0.142 0.428-0.282 0.628-14.272 33.418-35.017 64.686-62.272 91.938-27.252 27.252-58.52 48.004-91.942 62.268-0.2 0.146-0.4 0.232-0.624 0.287-4.749 1.849-10.319 0.824-14.154-3.014l-17.623-17.62c-3.125-3.128-3.125-8.239 0-11.367l154.896-154.897c3.129-3.125 8.239-3.125 11.367 0l17.62 17.624c3.839 3.834 4.863 9.408 3.014 14.153z" />
<glyph unicode="&#x4e;" d="M444.060 429.628l15.908-15.899-141.083-141.086-137.194 137.199-181.691-181.69 26.047-26.055 155.644 155.648 137.194-137.199 167.126 167.133 15.443-15.444 10.546 67.935zM53.909 7.831h82.828v266.032l-82.828-82.833zM384.977 7.831h82.827v322.713l-82.827-82.831zM164.263 301.394v-293.563h82.833v245.581l-65.41 65.404zM318.881 181.618l-44.26 44.268v-218.051h82.829v212.352l-19.102-19.102z" />
<glyph unicode="&#x4f;" d="M430.754 400.442c-4.466 5.252-10.88 8.766-18.298 8.766h-176.709c-13.45 0-24.319-10.882-24.319-24.294v-6.951c0-13.417 10.869-24.287 24.319-24.287l110.094-0.015-126.216-126.212c-9.487-9.474-9.487-24.874 0-34.363l4.901-4.895c9.504-9.495 24.885-9.495 34.367 0l125.873 125.859v-109.189c0-13.406 10.88-24.281 24.288-24.281h6.943c13.417 0 24.317 10.873 24.317 24.281v174.095c0.021 0.59 0.021 1.167 0 1.751v0.897c-0.001 7.78-3.897 14.393-9.56 18.836zM389.327 123.435c0 13.392-10.877 24.291-24.298 24.291h-6.921c-13.428 0-24.296-10.9-24.296-24.291v-8.393c-2.915-11.628-13.417-20.237-25.913-20.226h-155.036c-14.751 0-26.701 11.95-26.701 26.701v148.666c0 12.926 8.994 23.723 21.36 26.172h6.595c13.406 0 24.281 10.877 24.281 24.304v6.931c0 13.432-10.874 24.307-24.281 24.307h-58.13c-12.018 0-22.010-8.744-23.933-20.216-0.531-2.106-0.822-4.308-0.822-6.57v-258.531c0-14.753 11.954-26.694 26.705-26.694h264.892c6.854 0 13.11 2.584 17.865 6.844 4.282 3.618 7.327 8.709 8.289 14.512 0.348 1.726 0.545 3.493 0.348 5.545v56.649z" />
<glyph unicode="&#x50;" d="M170.888 351.066c-16.632 7.397-35.458 10.159-51.492 10.586-13.761 0.251-28.902-0.753-40.322-1.758-16.581-1.49-38.581-4.562-48.075-6.541l0.059-0.738 10.771-119.8 3.307-36.868 11.517-128.084 0.059-0.738 64.492 5.786-0.059 0.753-6.933 76.836-0.952 10.719c13.245 1.552 26.798 3.869 39.407 7.959 11.199 3.618 21.926 8.284 31.021 14.308 13.569 9.051 25.358 22.384 33.117 39.423 6.135 14.306 9.405 31.671 7.655 51.233-3.684 40.928-26.989 64.818-53.574 76.925zM156.175 246.045c-2.392-6.512-6.755-11.724-11.251-15.489-6.215-5.006-15.162-8.785-25.070-10.424-2.923-0.635-9.922-1.284-11.767-1.432l-7.537 84.070c4.377 0.738 8.061 1.063 11.022 1.329 10.32 0.945 19.401-0.842 27.226-4.99 10.934-6.067 18.634-17.275 19.881-31.272l0.029-0.369c0.739-8.119-0.147-14.896-2.531-21.422zM427.898 293.306c-3.69 40.928-26.997 64.818-53.581 76.924-16.633 7.427-35.466 10.188-51.456 10.601-13.753 0.265-28.923-0.738-40.368-1.757-16.572-1.492-38.572-4.593-48.060-6.555l0.066-0.738 10.756-119.802 3.308-36.868 11.502-128.040 0.074-0.738 64.523 5.786-0.067 0.753-6.925 76.791-0.967 10.69c13.221 1.581 26.784 3.913 39.407 8.019 11.185 3.632 21.772 8.298 30.881 14.322 13.694 9.007 25.491 22.339 33.265 39.407 6.113 14.278 9.397 31.671 7.64 51.205zM359.604 265.224c-2.392-6.526-6.74-11.753-11.222-15.503-6.245-5.036-15.2-8.771-25.077-10.394-2.915-0.649-9.907-1.256-11.76-1.433l-7.538 84.026c4.392 0.753 8.055 1.079 11.022 1.344 10.306 0.945 19.365-0.856 27.197-4.946 10.918-6.083 18.633-17.304 19.88-31.316l0.030-0.384c0.739-8.077-0.154-14.84-2.531-21.394zM442.426 168.5c-21.247 0-38.507-17.276-38.507-38.611 0-21.055 17.26-38.299 38.507-38.299 21.32 0 38.574 17.245 38.574 38.299 0 21.334-17.253 38.611-38.574 38.611z" />
<glyph unicode="&#x51;" d="M499.177 46.080c-10.085 3.678-21.271-1.51-24.954-11.634-6.174-16.958-24.931-25.737-41.928-19.557l-155.563 56.627c0 0 39.392 61.314 54.362 84.6 18.115 28.126 8.569 46.19-15.362 59.516-36.418 20.249-67.263 34.426-168.105 71.13 0 0-12.060-22.641 5.669-49.823 17.741-27.176 37.49-31.5 72.631-47.152 35.175-15.703 48.018-16.736 33.773-42.45-14.228-25.675-32.173-57.91-32.173-57.91l-201.39 73.296c-10.125 3.683-21.271-1.51-24.959-11.641-3.672-10.079 1.509-21.271 11.634-24.953l406.162-147.833c37.201-13.541 78.313 5.669 91.842 42.836 3.684 10.119-1.514 21.27-11.639 24.948zM369.703 391.867c23.58-8.584 49.646 3.575 58.228 27.158 8.587 23.581-3.564 49.647-27.15 58.23-23.54 8.564-49.652-3.575-58.233-27.159-8.587-23.579 3.614-49.663 27.155-58.229zM45.355 361.97c5.925-4.16 19.806-8.212 17.831-13.629l-3.774-10.36c-0.857-2.372-0.619-5.638 2.026-6.603 2.894-0.945 5.312 4.435 9.693 7.834 4.404 3.428 9.41 1.901 14.897-0.099l170.512-62.064c2.804-1.024 5.402-0.215 16.708 9.483 11.315 9.693 18.717 17.363 18.717 17.363s5.788-33.793 8.041-42.666c2.248-8.879 12.639-14.361 25.941-18.050 13.337-3.708 61.877-15.073 75.985-17.434 14.086-2.412 25.317-0.011 26.991 8.501 1.629 8.519-7.077 14.594-36.186 26.338-29.107 11.745-41.582 16.188-44.566 17.463-2.997 1.271-7.854 2.213-6.697 14.134 1.221 11.941 5.397 52.138 5.817 68.103 0.426 15.964-4.529 29.689-17.451 37.437-12.917 7.783-40.901 17.556-86.212-6.978-28.978-15.709-53.591-43.982-61.831-53.14-5.653-6.254-11.839-5.207-19.795-2.307l-68.318 24.86c-5.482 2-10.3 4.038-11.475 9.503-1.169 5.419 0.442 11.098-2.384 12.227-2.645 0.965-4.932-1.385-5.8-3.757l-3.769-10.36c-1.969-5.417-15.209 0.406-22.417 1.021-6.946 0.593-8.274-0.854-8.274-0.854s0.092-1.962 5.79-5.966z" />
<glyph unicode="&#x52;" d="M487.804 294.553c-1.255 1.253-3.246 1.237-4.486 0-0.229-0.232-0.402-0.457-0.514-0.75-0.119-0.348-0.226-0.692-0.372-1.010-0.056-0.286-0.171-0.58-0.284-0.863-14.029-39.423-37.825-80.859-69.009-120.779-14.764-18.893-31.207-37.435-49.043-55.269-18.121-18.121-36.745-34.588-55.408-49.232-40.928-32.082-82.335-55.563-120.426-69.135-1.006-0.372-1.988-0.705-2.973-1.045-1.089-1.212-1.025-3.063 0.17-4.26 0.582-0.582 1.306-0.906 2.090-0.942 0.032-0.023 0.055 0 0.114 0 0.229 0 0.431 0.028 0.637 0.056h0.059c24.435 2.367 50.207 9.048 76.097 19.798 41.767 17.373 83.909 45.363 121.475 82.926 37.592 37.599 65.582 79.736 82.954 121.503 10.728 25.868 17.406 51.577 19.748 75.989 0.023 0.259 0.055 0.518 0.083 0.777 0.024 0.091 0.024 0.091 0.024 0.147-0.064 0.754-0.357 1.504-0.938 2.087zM347.257 132.726c8.803 8.808 17.287 17.808 25.302 26.936 41.253 46.541 72.377 96.418 88.966 143.107 4.069 11.405 7.156 22.296 9.294 32.588 2.62 12.744 3.791 24.571 3.491 35.397 0 0.522 0 0.985-0.031 1.477 0 0.055 0 0.117-0.032 0.202-0.094 1.075-0.333 2.116-0.713 3.13-0.031 0.147-0.059 0.236-0.118 0.349-0.21 0.495-0.412 0.99-0.618 1.484-0.055 0.11-0.091 0.198-0.147 0.259-6.015 14.125-14.427 26.792-25.313 37.679-10.892 10.89-23.56 19.302-37.686 25.317-0.059 0.057-0.142 0.089-0.257 0.147-0.618 0.263-1.188 0.496-1.829 0.733-1.013 0.385-2.058 0.622-3.13 0.714-0.084 0.028-0.147 0.028-0.202 0.032-0.49 0.032-0.954 0.032-1.477 0.036-19.593 0.552-42.543-3.712-67.983-12.791-29.279-10.413-59.858-26.548-90.004-47.317-27.407-18.791-54.466-41.367-80.044-66.945-25.571-25.572-48.18-52.668-66.942-80.044-20.769-30.142-36.876-60.692-47.322-90.003-9.076-25.44-13.312-48.358-12.757-67.952 0-0.522 0-0.982 0.038-1.476-0.008-0.059 0-0.115 0.028-0.207 0.091-1.128 0.356-2.253 0.772-3.356 0.151-0.384 0.325-0.788 0.468-1.163 6.081-14.361 14.605-27.317 25.669-38.38s24.023-19.589 38.375-25.666c0.38-0.147 0.787-0.321 1.164-0.467 0.436-0.15 0.894-0.328 1.362-0.388 1.968-0.127 3.993-0.193 6.079-0.209 0 0 0.023-0.023 0.023 0.032 10.192-0.064 21.18 1.147 32.743 3.562 52.195 10.743 116.374 45.461 175.922 97.968 9.099 7.991 18.105 16.415 26.908 25.217zM312.571 157.952c-0.392-0.098-0.788-0.15-1.159-0.166-26.781-3.713-54.831-2.139-82.704 5.474-27.961 7.666-53.073 20.666-74.534 37.615-0.245 0.15-0.443 0.349-0.692 0.546-0.226 0.173-0.447 0.397-0.645 0.594-3.25 3.253-4.315 7.893-3.103 11.986 0 0.048 0 0.048 0.023 0.075 0.167 0.562 0.364 1.103 0.633 1.618 9.912 25.052 24.961 48.487 45.188 68.714 20.226 20.225 43.667 35.279 68.712 45.19 0.519 0.268 1.058 0.461 1.62 0.631 0.032 0.025 0.032 0.025 0.079 0.025 4.093 1.208 8.731 0.144 11.981-3.106 0.202-0.2 0.424-0.422 0.598-0.649 0.197-0.243 0.396-0.442 0.546-0.69 16.945-21.462 29.947-46.577 37.611-74.541 7.616-27.866 9.19-55.914 5.474-82.704-0.017-0.368-0.067-0.76-0.163-1.156-0.428-2.267-1.528-4.457-3.27-6.194-1.742-1.745-3.927-2.837-6.195-3.265zM147.887 332.096c24.885 24.885 51.173 47.034 77.851 65.74 32.767 23.043 66.166 40.902 98.193 52.313 0.282 0.113 0.575 0.227 0.867 0.283 0.317 0.146 0.661 0.255 1.010 0.37 0.288 0.117 0.519 0.287 0.748 0.519 1.235 1.235 1.251 3.231 0 4.483-0.582 0.584-1.339 0.875-2.086 0.94-0.059 0-0.059 0-0.147-0.027-0.262-0.030-0.522-0.057-0.784-0.081-39.096-3.762-81.549-18.611-122.544-43.541-25.947-15.76-51.355-35.575-74.942-59.163-23.583-23.585-43.398-48.991-59.16-74.94-24.929-40.999-39.781-83.505-43.568-122.637v-0.056c-0.027-0.202-0.052-0.402-0.052-0.633 0-0.059-0.032-0.087 0-0.119 0.032-0.779 0.356-1.504 0.942-2.094 1.243-1.243 3.215-1.259 4.45-0.023 0.206 0.202 0.377 0.432 0.491 0.724 0.114 0.341 0.229 0.697 0.372 1.070 0.079 0.257 0.198 0.546 0.309 0.839 11.416 32.015 29.272 65.423 52.308 98.181 18.71 26.686 40.861 52.971 65.743 77.855zM277.005 255.364l-32.853 32.847-14.448-14.446 0.158-0.162 32.688-32.69c5.375-5.371 8.693-9.475 9.635-13.583 1.108-4.896-0.55-10.030-4.655-14.139-4.188-4.188-9.789-6.313-14.848-4.892-3.789 1.104-7.659 4.183-13.106 9.634l-32.85 32.851-14.925-14.924 33.008-33.011c7.263-7.263 12.481-11.685 18.56-13.977 12.081-4.662 25.974-1.029 38.059 11.060 11.61 11.606 13.66 26.291 9.947 36.005-2.447 6.4-6.788 11.843-14.369 19.427z" />
<glyph unicode="&#x53;" d="M255.995 308.753c28.28 0 51.21 22.929 51.21 51.205 0 28.28-22.93 51.205-51.21 51.205-28.281 0-51.2-22.924-51.2-51.205 0-28.276 22.919-51.205 51.2-51.205zM255.995 174.359c-28.281 0-51.2-22.93-51.2-51.205 0-28.28 22.919-51.205 51.2-51.205s51.21 22.925 51.21 51.205c0 28.276-22.93 51.205-51.21 51.205zM239.214 242.444c0 28.28-22.93 51.21-51.21 51.21-28.281 0-51.2-22.93-51.2-51.21 0-28.276 22.919-51.205 51.2-51.205s51.21 22.929 51.21 51.205zM375.196 242.444c0 28.28-22.93 51.21-51.21 51.21s-51.2-22.93-51.2-51.21c0-28.276 22.92-51.205 51.2-51.205s51.21 22.929 51.21 51.205zM391.978 174.359c-28.28 0-51.2-22.93-51.2-51.205 0-28.28 22.92-51.205 51.2-51.205s51.21 22.925 51.21 51.205c0 28.276-22.93 51.205-51.21 51.205zM120.013 174.359c-28.281 0-51.2-22.93-51.2-51.205 0-28.28 22.919-51.205 51.2-51.205 28.28 0 51.21 22.925 51.21 51.205 0 28.276-22.93 51.205-51.21 51.205zM495.932 183.178l-136.317 237.389c-21.454 36.661-61.155 59.433-103.615 59.433s-82.161-22.772-103.718-59.615l-136.282-237.33c-10.467-18.124-16-38.826-16-59.881 0-66.206 53.841-120.071 120.018-120.071h271.965c66.177 0 120.018 53.865 120.018 120.071-0.001 21.055-5.534 41.757-16.069 60.004zM391.982 43.394h-271.964c-43.965 0-79.727 35.791-79.727 79.78 0 13.988 3.664 27.725 10.521 39.603l136.356 237.442c14.248 24.366 40.625 39.49 68.832 39.49s54.584-15.124 68.724-39.298l136.386-237.507c6.936-12.006 10.6-25.742 10.6-39.73-0.001-43.989-35.763-79.78-79.728-79.78z" />
<glyph unicode="&#x54;" d="M465.61 402.315c-77.933 77.938-185.912 49.388-259.985-24.692-36.654-36.649-51.689-73.503-56.625-105.797-0.205-1.030-0.324-2.011-0.41-2.997-0.905-9.371 2.673-16.274 9.948-23.505v-0.038l150.087-150.092c7.964-7.965 15.605-11.5 26.539-9.489 32.338 4.888 69.188 20.009 105.755 56.576 74.079 74.079 102.676 182.054 24.691 260.034zM216.142 152.844l-56.172 56.162c-0.324 0.334-0.614 0.619-0.9 0.861-6.289 5.631-9.167 1.525-8.175-4.229 0-0.124 0-0.205 0.038-0.329 2.382-12.733 5.136-22.676 5.998-28.878 3.659-25.435-0.695-37.021-26.13-62.456-25.429-25.436-66.599-54.971-68.033-66.6-1.444-11.586 8.008-23.952 15.978-31.929 7.97-8.008 20.342-17.455 31.966-15.978 11.624 1.438 41.17 42.604 66.557 68 25.434 25.425 37.064 29.784 62.493 26.168 6.203-0.899 16.108-3.615 28.845-6.003h0.039c6.158-1.229 10.68 2.016 3.658 9.005l-56.162 56.206zM76.326 248.37c-17.459 17.454-45.777 17.454-63.232 0-17.459-17.46-17.459-45.777 0-63.232 17.454-17.509 45.805-17.509 63.264-0.043 17.471 17.46 17.471 45.766-0.032 63.275z" />
<glyph unicode="&#x55;" d="M339.746 230.021c16.68 6.468 32.551 9.762 47.224 9.762 34.108 0 50.519-17.488 51.267-18.297 5.002-5.54 14.345-2.126 14.345 5.48v153.471c0 1.288-0.329 2.605-0.929 3.743-0.658 1.318-17.188 32.342-64.442 32.342-13.416 0-28.149-2.576-43.751-7.606-11.409-3.684-23.537-5.57-36.024-5.57-25.693 0-49.56 7.846-67.737 16.17v-174.762c18.268-11.619 40.906-21.202 65.761-21.202 11.737 0.001 23.235 2.157 34.286 6.469zM210.411 153.66v267.235c0 6.947-10.331 12.906-23.028 12.906-12.727 0-23.028-5.66-23.028-12.906v-273.285l-132.39-138.138 54.411-9.732 26.771 27.909c43.96-10.601 98.641-14.793 147.932-3.204 43.601 9.792 79.415 30.635 100.258 60.311l85.016-12.607 33.149 41.625-269.091 39.886zM237.182 62.266c-30.544-4.701-67.767-1.107-87.98 3.024l42.643 44.619 117.536-17.458c-14.524-12.936-37.642-24.855-72.199-30.185z" />
<glyph unicode="&#x56;" d="M365.487 335.852h-38.497v-0.714c-0.717-2.494-66.31-142.355-66.31-142.355h-2.136c0 0-65.594 139.861-66.305 142.355v0.714h-75.218v-0.714c1.424-2.494 8.912-18.535 55.962-116.929l79.496-165.767h14.261l79.495 165.768c47.051 98.394 54.543 114.435 55.967 116.928v0.714h-36.716zM259.731 104.606l-97.694 204.541h9.381l88.313-184.887 88.432 184.478h9.385l-97.817-204.132zM496.25 224c0-132.688-107.563-240.25-240.25-240.25s-240.25 107.563-240.25 240.25 107.563 240.25 240.25 240.25 240.25-107.563 240.25-240.25z" />
<glyph unicode="&#x57;" d="M210.059 169.401l-97.607-116.449c-4.047-4.82-8.907-4.307-17.436-2.286-8.557 2.026-14.326 0.435-22.59-9.381-8.218-9.816-6.282-19.757-0.644-24.492l45.919-38.559c0.045-0.039 0.085-0.085 0.13-0.085 7.101-5.893 16.528-8.478 27.021 4.008 10.55 12.565 5.294 18.074 3.962 23.369-1.292 5.289-3.697 12.688 2.585 20.134l81.294 97.088c4.222 5.035 5.041 13.644 0 19.626l-22.634 27.027zM489.801 465.326c-21.473 18.029-56.255 20.998-73.77 0.125-12.909-15.404-23.020-32.875-65.8-91.793-46.607-64.298-9.251-46.523-62.621-111.769-1.722-2.111-3.522-4.301-5.464-6.587l-1.632-1.891c-0.136-0.13-0.26-0.305-0.35-0.429l-8.907-10.629 22.336-26.857c5.769-6.932 12.351-5.47 16.911 0l8.653 10.284c1.162 1.383 2.325 2.755 3.397 4.047 57.417 67.307 45.276 24.356 101.181 82.157 50.609 52.332 66.064 65.331 78.974 80.735 17.516 20.874 8.608 54.573-12.908 72.607zM416.776 50.666c-8.518-2.021-13.384-2.534-17.431 2.286l-0.040 0.040-112.383 134.359-57.067 67.956c-1.936 2.274-3.748 4.47-5.464 6.582-53.364 65.24-16.008 47.465-62.622 111.763-42.73 58.918-52.89 76.388-65.799 91.798-17.521 20.874-52.292 17.905-73.764-0.124-21.523-18.034-30.431-51.733-12.915-72.607 12.915-15.41 28.364-28.398 78.974-80.735 56.080-58.015 43.678-14.546 101.744-82.846 0.943-1.117 1.886-2.195 2.834-3.358l63.134-75.271 104.465-124.849c0.040-0.039 0.085-0.124 0.13-0.169 6.068-7.4 3.697-14.716 2.41-19.971-1.292-5.289-6.587-10.798 3.957-23.369 10.505-12.479 19.926-9.895 27.026-4.002 0.046 0 0.091 0.040 0.13 0.085l45.965 38.564c0.084 0.084 0.214 0.169 0.299 0.26 5.379 4.859 7.056 14.585-0.988 24.227-8.264 9.811-14.026 11.407-22.595 9.381z" />
</font>
</defs>
</svg>
